<svg width="196" height="196" viewBox="0 0 196 196" fill="none" xmlns="http://www.w3.org/2000/svg">
<g filter="url(#filter0_d_1332_49861)">
<circle cx="98" cy="98" r="53" fill="url(#paint0_linear_1332_49861)" shape-rendering="crispEdges"/>
</g>
<g clip-path="url(#clip0_1332_49861)">
<g filter="url(#filter1_d_1332_49861)">
<g filter="url(#filter2_d_1332_49861)">
<path fill-rule="evenodd" clip-rule="evenodd" d="M87 83C86.7348 83 86.4804 83.1054 86.2929 83.2929C86.1054 83.4804 86 83.7348 86 84V115C86 115.265 86.1054 115.52 86.2929 115.707C86.4804 115.895 86.7348 116 87 116H109C109.265 116 109.52 115.895 109.707 115.707C109.895 115.52 110 115.265 110 115V84C110 83.7348 109.895 83.4804 109.707 83.2929C109.52 83.1054 109.265 83 109 83H103.417V81H109C109.796 81 110.559 81.3161 111.121 81.8787C111.684 82.4413 112 83.2044 112 84V115C112 115.796 111.684 116.559 111.121 117.121C110.559 117.684 109.796 118 109 118H87C86.2044 118 85.4413 117.684 84.8787 117.121C84.3161 116.559 84 115.796 84 115V84C84 83.2044 84.3161 82.4413 84.8787 81.8787C85.4413 81.3161 86.2044 81 87 81H92.583V83H87Z" fill="white"/>
</g>
<g filter="url(#filter3_d_1332_49861)">
<path fill-rule="evenodd" clip-rule="evenodd" d="M91 81C91 80.2044 91.3161 79.4413 91.8787 78.8787C92.4413 78.3161 93.2044 78 94 78H102C102.796 78 103.559 78.3161 104.121 78.8787C104.684 79.4413 105 80.2044 105 81V83C105 83.7956 104.684 84.5587 104.121 85.1213C103.559 85.6839 102.796 86 102 86H94C93.2044 86 92.4413 85.6839 91.8787 85.1213C91.3161 84.5587 91 83.7956 91 83V81ZM94 80C93.7348 80 93.4804 80.1054 93.2929 80.2929C93.1054 80.4804 93 80.7348 93 81V83C93 83.2652 93.1054 83.5196 93.2929 83.7071C93.4804 83.8946 93.7348 84 94 84H102C102.265 84 102.52 83.8946 102.707 83.7071C102.895 83.5196 103 83.2652 103 83V81C103 80.7348 102.895 80.4804 102.707 80.2929C102.52 80.1054 102.265 80 102 80H94ZM89 95C89 94.7348 89.1054 94.4804 89.2929 94.2929C89.4804 94.1054 89.7348 94 90 94H97C97.2652 94 97.5196 94.1054 97.7071 94.2929C97.8946 94.4804 98 94.7348 98 95C98 95.2652 97.8946 95.5196 97.7071 95.7071C97.5196 95.8946 97.2652 96 97 96H90C89.7348 96 89.4804 95.8946 89.2929 95.7071C89.1054 95.5196 89 95.2652 89 95ZM89 90C89 89.7348 89.1054 89.4804 89.2929 89.2929C89.4804 89.1054 89.7348 89 90 89H105.5C105.765 89 106.02 89.1054 106.207 89.2929C106.395 89.4804 106.5 89.7348 106.5 90C106.5 90.2652 106.395 90.5196 106.207 90.7071C106.02 90.8946 105.765 91 105.5 91H90C89.7348 91 89.4804 90.8946 89.2929 90.7071C89.1054 90.5196 89 90.2652 89 90ZM91 103V105H93V103H91ZM90 101C89.7348 101 89.4804 101.105 89.2929 101.293C89.1054 101.48 89 101.735 89 102V106C89 106.265 89.1054 106.52 89.2929 106.707C89.4804 106.895 89.7348 107 90 107H94C94.2652 107 94.5196 106.895 94.7071 106.707C94.8946 106.52 95 106.265 95 106V102C95 101.735 94.8946 101.48 94.7071 101.293C94.5196 101.105 94.2652 101 94 101H90ZM102 103C102.135 103.006 102.27 102.985 102.396 102.938C102.523 102.89 102.638 102.818 102.736 102.724C102.834 102.631 102.912 102.519 102.965 102.395C103.018 102.271 103.046 102.137 103.046 102.002C103.046 101.867 103.019 101.733 102.966 101.609C102.913 101.485 102.835 101.372 102.738 101.279C102.64 101.186 102.525 101.113 102.398 101.065C102.272 101.018 102.137 100.996 102.002 101.002C101.745 101.013 101.502 101.123 101.324 101.309C101.146 101.495 101.046 101.743 101.046 102C101.045 102.258 101.145 102.505 101.322 102.691C101.5 102.878 101.743 102.988 102 103V103ZM102 105C102.796 105 103.559 104.684 104.121 104.121C104.684 103.559 105 102.796 105 102C105 101.204 104.684 100.441 104.121 99.8787C103.559 99.3161 102.796 99 102 99C101.204 99 100.441 99.3161 99.8787 99.8787C99.3161 100.441 99 101.204 99 102C99 102.796 99.3161 103.559 99.8787 104.121C100.441 104.684 101.204 105 102 105V105ZM98 109.28C98.0175 109.26 98.0358 109.24 98.055 109.221C98.219 109.061 98.535 108.849 99.031 108.638C100.031 108.213 101.265 108 102 108C102.735 108 103.969 108.213 104.969 108.638C105.465 108.848 105.781 109.061 105.945 109.221C105.964 109.24 105.983 109.259 106 109.279V111H98V109.28ZM102 106C99.997 106 96 107.066 96 109.182V113H108V109.182C108 107.066 104.003 106 102 106Z" fill="white"/>
</g>
</g>
</g>
<defs>
<filter id="filter0_d_1332_49861" x="0" y="0" width="196" height="196" filterUnits="userSpaceOnUse" color-interpolation-filters="sRGB">
<feFlood flood-opacity="0" result="BackgroundImageFix"/>
<feColorMatrix in="SourceAlpha" type="matrix" values="0 0 0 0 0 0 0 0 0 0 0 0 0 0 0 0 0 0 127 0" result="hardAlpha"/>
<feMorphology radius="5" operator="dilate" in="SourceAlpha" result="effect1_dropShadow_1332_49861"/>
<feOffset/>
<feGaussianBlur stdDeviation="20"/>
<feComposite in2="hardAlpha" operator="out"/>
<feColorMatrix type="matrix" values="0 0 0 0 1 0 0 0 0 1 0 0 0 0 1 0 0 0 1 0"/>
<feBlend mode="normal" in2="BackgroundImageFix" result="effect1_dropShadow_1332_49861"/>
<feBlend mode="normal" in="SourceGraphic" in2="effect1_dropShadow_1332_49861" result="shape"/>
</filter>
<filter id="filter1_d_1332_49861" x="72" y="74" width="50" height="50.5" filterUnits="userSpaceOnUse" color-interpolation-filters="sRGB">
<feFlood flood-opacity="0" result="BackgroundImageFix"/>
<feColorMatrix in="SourceAlpha" type="matrix" values="0 0 0 0 0 0 0 0 0 0 0 0 0 0 0 0 0 0 127 0" result="hardAlpha"/>
<feOffset dx="-2" dy="2.5"/>
<feComposite in2="hardAlpha" operator="out"/>
<feColorMatrix type="matrix" values="0 0 0 0 0.972549 0 0 0 0 0.113725 0 0 0 0 0.984314 0 0 0 1 0"/>
<feBlend mode="normal" in2="BackgroundImageFix" result="effect1_dropShadow_1332_49861"/>
<feBlend mode="normal" in="SourceGraphic" in2="effect1_dropShadow_1332_49861" result="shape"/>
</filter>
<filter id="filter2_d_1332_49861" x="83" y="81" width="29" height="38.5" filterUnits="userSpaceOnUse" color-interpolation-filters="sRGB">
<feFlood flood-opacity="0" result="BackgroundImageFix"/>
<feColorMatrix in="SourceAlpha" type="matrix" values="0 0 0 0 0 0 0 0 0 0 0 0 0 0 0 0 0 0 127 0" result="hardAlpha"/>
<feOffset dx="-1" dy="1.5"/>
<feComposite in2="hardAlpha" operator="out"/>
<feColorMatrix type="matrix" values="0 0 0 0 0.972549 0 0 0 0 0.113725 0 0 0 0 0.984314 0 0 0 1 0"/>
<feBlend mode="normal" in2="BackgroundImageFix" result="effect1_dropShadow_1332_49861"/>
<feBlend mode="normal" in="SourceGraphic" in2="effect1_dropShadow_1332_49861" result="shape"/>
</filter>
<filter id="filter3_d_1332_49861" x="88" y="78" width="20" height="36.5" filterUnits="userSpaceOnUse" color-interpolation-filters="sRGB">
<feFlood flood-opacity="0" result="BackgroundImageFix"/>
<feColorMatrix in="SourceAlpha" type="matrix" values="0 0 0 0 0 0 0 0 0 0 0 0 0 0 0 0 0 0 127 0" result="hardAlpha"/>
<feOffset dx="-1" dy="1.5"/>
<feComposite in2="hardAlpha" operator="out"/>
<feColorMatrix type="matrix" values="0 0 0 0 0.972549 0 0 0 0 0.113725 0 0 0 0 0.984314 0 0 0 1 0"/>
<feBlend mode="normal" in2="BackgroundImageFix" result="effect1_dropShadow_1332_49861"/>
<feBlend mode="normal" in="SourceGraphic" in2="effect1_dropShadow_1332_49861" result="shape"/>
</filter>
<linearGradient id="paint0_linear_1332_49861" x1="45" y1="45" x2="123.025" y2="168.652" gradientUnits="userSpaceOnUse">
<stop stop-color="white" stop-opacity="0.1"/>
<stop offset="1" stop-color="white" stop-opacity="0.05"/>
</linearGradient>
<clipPath id="clip0_1332_49861">
<rect width="48" height="48" fill="white" transform="translate(74 74)"/>
</clipPath>
</defs>
</svg>
