<svg width="196" height="196" viewBox="0 0 196 196" fill="none" xmlns="http://www.w3.org/2000/svg">
<g filter="url(#filter0_d_1332_49868)">
<circle cx="98" cy="98" r="53" fill="url(#paint0_linear_1332_49868)" shape-rendering="crispEdges"/>
</g>
<g filter="url(#filter1_d_1332_49868)">
<path d="M114.069 88.4H114.1C114.76 88.3996 115.407 88.2179 115.971 87.8746C116.534 87.5314 116.993 87.0398 117.296 86.4536C117.599 85.8674 117.735 85.2092 117.69 84.5509C117.644 83.8926 117.418 83.2594 117.037 82.7207C116.656 82.182 116.134 81.7584 115.528 81.4962C114.923 81.2341 114.257 81.1434 113.603 81.2342C112.949 81.3249 112.333 81.5936 111.822 82.0108C111.311 82.428 110.924 82.9778 110.704 83.6L110.69 83.6456C110.454 84.338 110.436 85.0857 110.636 85.789C110.837 86.4923 111.248 87.1176 111.813 87.5816L111.827 87.5912C112.439 88.0904 113.219 88.3928 114.069 88.4V88.4ZM79.3 111.2C79.3003 111.722 79.4141 112.238 79.6335 112.712C79.853 113.185 80.1729 113.606 80.571 113.944C80.9691 114.281 81.436 114.528 81.9392 114.668C82.4423 114.807 82.9698 114.835 83.485 114.751C84.0002 114.666 84.4907 114.47 84.9226 114.177C85.3546 113.883 85.7175 113.499 85.9863 113.052C86.2551 112.604 86.4233 112.103 86.4793 111.584C86.5353 111.065 86.4777 110.54 86.3104 110.046L86.296 110C86.0487 109.303 85.5933 108.7 84.9914 108.27C84.3896 107.841 83.6704 107.607 82.9312 107.6H82.9C81.9453 107.6 81.0296 107.979 80.3545 108.654C79.6793 109.329 79.3 110.245 79.3 111.2V111.2ZM92.4688 88.4H92.5C93.2448 88.4003 93.9714 88.1697 94.5796 87.7399C95.1878 87.31 95.6478 86.7021 95.896 86L95.9104 85.9544C96.17 85.1902 96.165 84.3609 95.896 83.6C95.7109 83.0768 95.4074 82.6036 95.0091 82.2172C94.6109 81.8308 94.1287 81.5417 93.6002 81.3724C93.0717 81.2032 92.5113 81.1584 91.9627 81.2416C91.414 81.3248 90.892 81.5337 90.4375 81.8519C89.9829 82.1702 89.6081 82.5892 89.3423 83.0763C89.0764 83.5634 88.9268 84.1054 88.905 84.6598C88.8833 85.2143 88.99 85.7663 89.2169 86.2727C89.4438 86.7791 89.7846 87.2263 90.2128 87.5792L90.2272 87.5912C90.8392 88.0904 91.6192 88.3928 92.4688 88.4V88.4ZM89.3632 89.9144L83.7808 105.265C84.5968 105.385 85.3624 105.67 86.0368 106.083L91.6192 90.7352C90.8194 90.6174 90.0518 90.3381 89.3632 89.9144V89.9144ZM108.22 86H98.38C98.5409 85.208 98.5409 84.3919 98.38 83.6H108.22C108.059 84.3919 108.059 85.208 108.22 86V86ZM106.686 101.677L110.699 97.664L113.219 90.7352C112.419 90.6174 111.652 90.3382 110.963 89.9144L106.686 101.674V101.677ZM88.78 112.4H97.24C97.504 111.534 97.9192 110.72 98.464 110H88.78C88.9409 110.792 88.9409 111.608 88.78 112.4ZM100.852 110.905L112.444 99.3128C113.286 98.4713 114.428 97.9988 115.619 97.9992C116.809 97.9997 117.951 98.473 118.792 99.3152C119.634 100.157 120.106 101.299 120.106 102.49C120.105 103.68 119.632 104.822 118.79 105.663L107.198 117.253C106.522 117.928 105.676 118.408 104.75 118.64L101.154 119.538C100.797 119.627 100.423 119.622 100.067 119.523C99.7124 119.425 99.3889 119.236 99.1283 118.976C98.8676 118.716 98.6788 118.392 98.58 118.037C98.4813 117.682 98.4761 117.308 98.5648 116.95L99.4648 113.355C99.695 112.428 100.175 111.581 100.852 110.907V110.905Z" fill="white"/>
</g>
<defs>
<filter id="filter0_d_1332_49868" x="0" y="0" width="196" height="196" filterUnits="userSpaceOnUse" color-interpolation-filters="sRGB">
<feFlood flood-opacity="0" result="BackgroundImageFix"/>
<feColorMatrix in="SourceAlpha" type="matrix" values="0 0 0 0 0 0 0 0 0 0 0 0 0 0 0 0 0 0 127 0" result="hardAlpha"/>
<feMorphology radius="5" operator="dilate" in="SourceAlpha" result="effect1_dropShadow_1332_49868"/>
<feOffset/>
<feGaussianBlur stdDeviation="20"/>
<feComposite in2="hardAlpha" operator="out"/>
<feColorMatrix type="matrix" values="0 0 0 0 1 0 0 0 0 1 0 0 0 0 1 0 0 0 1 0"/>
<feBlend mode="normal" in2="BackgroundImageFix" result="effect1_dropShadow_1332_49868"/>
<feBlend mode="normal" in="SourceGraphic" in2="effect1_dropShadow_1332_49868" result="shape"/>
</filter>
<filter id="filter1_d_1332_49868" x="78.3" y="81.2" width="41.8055" height="39.9009" filterUnits="userSpaceOnUse" color-interpolation-filters="sRGB">
<feFlood flood-opacity="0" result="BackgroundImageFix"/>
<feColorMatrix in="SourceAlpha" type="matrix" values="0 0 0 0 0 0 0 0 0 0 0 0 0 0 0 0 0 0 127 0" result="hardAlpha"/>
<feOffset dx="-1" dy="1.5"/>
<feComposite in2="hardAlpha" operator="out"/>
<feColorMatrix type="matrix" values="0 0 0 0 0.972549 0 0 0 0 0.113725 0 0 0 0 0.984314 0 0 0 1 0"/>
<feBlend mode="normal" in2="BackgroundImageFix" result="effect1_dropShadow_1332_49868"/>
<feBlend mode="normal" in="SourceGraphic" in2="effect1_dropShadow_1332_49868" result="shape"/>
</filter>
<linearGradient id="paint0_linear_1332_49868" x1="45" y1="45" x2="123.025" y2="168.652" gradientUnits="userSpaceOnUse">
<stop stop-color="white" stop-opacity="0.1"/>
<stop offset="1" stop-color="white" stop-opacity="0.05"/>
</linearGradient>
</defs>
</svg>
