<svg width="196" height="196" viewBox="0 0 196 196" fill="none" xmlns="http://www.w3.org/2000/svg">
<g filter="url(#filter0_d_1332_49872)">
<circle cx="98" cy="98" r="53" fill="url(#paint0_linear_1332_49872)" shape-rendering="crispEdges"/>
</g>
<g clip-path="url(#clip0_1332_49872)">
<g filter="url(#filter1_d_1332_49872)">
<path fill-rule="evenodd" clip-rule="evenodd" d="M108 77H90C89.2044 77 88.4413 77.3161 87.8787 77.8787C87.3161 78.4413 87 79.2044 87 80V98C87 98.3978 86.842 98.7794 86.5607 99.0607C86.2794 99.342 85.8978 99.5 85.5 99.5C85.1022 99.5 84.7206 99.342 84.4393 99.0607C84.158 98.7794 84 98.3978 84 98V80C84 78.4087 84.6321 76.8826 85.7574 75.7574C86.8826 74.6321 88.4087 74 90 74H108C109.591 74 111.117 74.6321 112.243 75.7574C113.368 76.8826 114 78.4087 114 80V98C114 98.3978 113.842 98.7794 113.561 99.0607C113.279 99.342 112.898 99.5 112.5 99.5C112.102 99.5 111.721 99.342 111.439 99.0607C111.158 98.7794 111 98.3978 111 98V80C111 79.2044 110.684 78.4413 110.121 77.8787C109.559 77.3161 108.796 77 108 77ZM111 116C111 116.796 110.684 117.559 110.121 118.121C109.559 118.684 108.796 119 108 119H90C89.2044 119 88.4413 118.684 87.8787 118.121C87.3161 117.559 87 116.796 87 116V110C87 109.602 86.842 109.221 86.5607 108.939C86.2794 108.658 85.8978 108.5 85.5 108.5C85.1022 108.5 84.7206 108.658 84.4393 108.939C84.158 109.221 84 109.602 84 110V116C84 117.591 84.6321 119.117 85.7574 120.243C86.8826 121.368 88.4087 122 90 122H108C109.591 122 111.117 121.368 112.243 120.243C113.368 119.117 114 117.591 114 116V110C114 109.602 113.842 109.221 113.561 108.939C113.279 108.658 112.898 108.5 112.5 108.5C112.102 108.5 111.721 108.658 111.439 108.939C111.158 109.221 111 109.602 111 110V116ZM80.139 97.862C80.5002 97.6953 80.7804 97.392 80.918 97.0187C81.0556 96.6454 81.0392 96.2327 80.8725 95.8715C80.79 95.6926 80.673 95.5318 80.5283 95.3981C80.3836 95.2645 80.214 95.1606 80.0292 95.0925C79.6559 94.9549 79.2432 94.9713 78.882 95.138C77.841 95.618 76.92 96.182 76.236 96.848C75.552 97.526 75 98.417 75 99.5C75 101.138 76.224 102.32 77.469 103.103C78.789 103.937 80.598 104.633 82.704 105.191C86.934 106.319 92.694 107 99 107C99.297 107 99.591 107 99.882 106.994L96.438 110.438C96.2985 110.577 96.1879 110.743 96.1124 110.925C96.037 111.107 95.9981 111.303 95.9981 111.5C95.9981 111.697 96.037 111.893 96.1124 112.075C96.1879 112.257 96.2985 112.423 96.438 112.562C96.7197 112.844 97.1017 113.002 97.5 113.002C97.6972 113.002 97.8925 112.963 98.0748 112.888C98.257 112.812 98.4225 112.701 98.562 112.562L104.562 106.562C104.702 106.423 104.813 106.257 104.888 106.075C104.964 105.893 105.003 105.697 105.003 105.5C105.003 105.303 104.964 105.107 104.888 104.925C104.813 104.743 104.702 104.577 104.562 104.438L98.562 98.438C98.4225 98.2985 98.257 98.1879 98.0748 98.1124C97.8925 98.037 97.6972 97.9981 97.5 97.9981C97.3028 97.9981 97.1075 98.037 96.9252 98.1124C96.743 98.1879 96.5775 98.2985 96.438 98.438C96.2985 98.5775 96.1879 98.743 96.1124 98.9252C96.037 99.1075 95.9981 99.3028 95.9981 99.5C95.9981 99.6972 96.037 99.8925 96.1124 100.075C96.1879 100.257 96.2985 100.423 96.438 100.562L99.873 103.994L99 104C92.88 104 87.39 103.337 83.478 102.293C81.51 101.768 80.025 101.171 79.068 100.568C78.036 99.917 78 99.518 78 99.5C78 99.491 78 99.323 78.336 98.99C78.681 98.654 79.266 98.264 80.136 97.862H80.139ZM119.118 95.138C118.757 94.9713 118.344 94.9549 117.971 95.0925C117.598 95.2301 117.294 95.5103 117.127 95.8715C116.961 96.2327 116.944 96.6454 117.082 97.0187C117.22 97.392 117.5 97.6953 117.861 97.862C118.737 98.264 119.319 98.654 119.661 98.993C120 99.323 120 99.491 120 99.5C120 99.509 120 99.695 119.61 100.061C119.214 100.427 118.554 100.841 117.579 101.261C115.644 102.101 112.791 102.83 109.29 103.322C108.902 103.384 108.553 103.596 108.319 103.912C108.086 104.228 107.985 104.624 108.041 105.013C108.096 105.403 108.301 105.755 108.614 105.994C108.926 106.233 109.32 106.34 109.71 106.292C113.346 105.782 116.49 105.002 118.77 104.018C119.91 103.526 120.909 102.947 121.65 102.257C122.388 101.57 123 100.646 123 99.5C123 98.414 122.448 97.52 121.764 96.851C121.08 96.182 120.159 95.618 119.118 95.138V95.138ZM97.5 80C97.1022 80 96.7206 80.158 96.4393 80.4393C96.158 80.7206 96 81.1022 96 81.5C96 81.8978 96.158 82.2794 96.4393 82.5607C96.7206 82.842 97.1022 83 97.5 83H100.5C100.898 83 101.279 82.842 101.561 82.5607C101.842 82.2794 102 81.8978 102 81.5C102 81.1022 101.842 80.7206 101.561 80.4393C101.279 80.158 100.898 80 100.5 80H97.5Z" fill="white"/>
</g>
</g>
<defs>
<filter id="filter0_d_1332_49872" x="0" y="0" width="196" height="196" filterUnits="userSpaceOnUse" color-interpolation-filters="sRGB">
<feFlood flood-opacity="0" result="BackgroundImageFix"/>
<feColorMatrix in="SourceAlpha" type="matrix" values="0 0 0 0 0 0 0 0 0 0 0 0 0 0 0 0 0 0 127 0" result="hardAlpha"/>
<feMorphology radius="5" operator="dilate" in="SourceAlpha" result="effect1_dropShadow_1332_49872"/>
<feOffset/>
<feGaussianBlur stdDeviation="20"/>
<feComposite in2="hardAlpha" operator="out"/>
<feColorMatrix type="matrix" values="0 0 0 0 1 0 0 0 0 1 0 0 0 0 1 0 0 0 1 0"/>
<feBlend mode="normal" in2="BackgroundImageFix" result="effect1_dropShadow_1332_49872"/>
<feBlend mode="normal" in="SourceGraphic" in2="effect1_dropShadow_1332_49872" result="shape"/>
</filter>
<filter id="filter1_d_1332_49872" x="74" y="74" width="49" height="49.5" filterUnits="userSpaceOnUse" color-interpolation-filters="sRGB">
<feFlood flood-opacity="0" result="BackgroundImageFix"/>
<feColorMatrix in="SourceAlpha" type="matrix" values="0 0 0 0 0 0 0 0 0 0 0 0 0 0 0 0 0 0 127 0" result="hardAlpha"/>
<feOffset dx="-1" dy="1.5"/>
<feComposite in2="hardAlpha" operator="out"/>
<feColorMatrix type="matrix" values="0 0 0 0 0.972549 0 0 0 0 0.113725 0 0 0 0 0.984314 0 0 0 1 0"/>
<feBlend mode="normal" in2="BackgroundImageFix" result="effect1_dropShadow_1332_49872"/>
<feBlend mode="normal" in="SourceGraphic" in2="effect1_dropShadow_1332_49872" result="shape"/>
</filter>
<linearGradient id="paint0_linear_1332_49872" x1="45" y1="45" x2="123.025" y2="168.652" gradientUnits="userSpaceOnUse">
<stop stop-color="white" stop-opacity="0.1"/>
<stop offset="1" stop-color="white" stop-opacity="0.05"/>
</linearGradient>
<clipPath id="clip0_1332_49872">
<rect width="48" height="48" fill="white" transform="translate(75 74)"/>
</clipPath>
</defs>
</svg>
