<svg width="196" height="196" viewBox="0 0 196 196" fill="none" xmlns="http://www.w3.org/2000/svg">
<g filter="url(#filter0_d_1332_49877)">
<circle cx="98" cy="98" r="53" fill="url(#paint0_linear_1332_49877)" shape-rendering="crispEdges"/>
</g>
<g clip-path="url(#clip0_1332_49877)">
<g filter="url(#filter1_d_1332_49877)">
<path fill-rule="evenodd" clip-rule="evenodd" d="M107.62 77.9901L112.63 83.0001L113.5 85.1301V86.1201H112L110.5 87.6201V85.1301L105.49 80.1201H104.5V92.1201H86.5V80.1201H80.5V110.12H89.5L88 113.12H80.5L77.5 110.12V80.1201L80.5 77.1201H105.49L107.62 77.9901V77.9901ZM95.5 89.0001H101.5V80.0001H95.5V89.0001ZM115 89.0001L119.5 93.5001L119.44 95.5701L102.94 112.07L102.55 112.43L101.44 113.54L101.14 113.81L92.14 118.31L90.13 116.3L94.63 107.3L94.9 107L96.01 105.89L96.37 105.5L112.87 89.0001H115V89.0001ZM96.34 110.72L94.78 113.72L97.9 112.28L96.34 110.72V110.72ZM98.41 107.63L100.78 110L116.23 94.5501L113.86 92.1801L98.41 107.63Z" fill="white"/>
</g>
</g>
<defs>
<filter id="filter0_d_1332_49877" x="0" y="0" width="196" height="196" filterUnits="userSpaceOnUse" color-interpolation-filters="sRGB">
<feFlood flood-opacity="0" result="BackgroundImageFix"/>
<feColorMatrix in="SourceAlpha" type="matrix" values="0 0 0 0 0 0 0 0 0 0 0 0 0 0 0 0 0 0 127 0" result="hardAlpha"/>
<feMorphology radius="5" operator="dilate" in="SourceAlpha" result="effect1_dropShadow_1332_49877"/>
<feOffset/>
<feGaussianBlur stdDeviation="20"/>
<feComposite in2="hardAlpha" operator="out"/>
<feColorMatrix type="matrix" values="0 0 0 0 1 0 0 0 0 1 0 0 0 0 1 0 0 0 1 0"/>
<feBlend mode="normal" in2="BackgroundImageFix" result="effect1_dropShadow_1332_49877"/>
<feBlend mode="normal" in="SourceGraphic" in2="effect1_dropShadow_1332_49877" result="shape"/>
</filter>
<filter id="filter1_d_1332_49877" x="76.5" y="77.1201" width="43" height="42.6899" filterUnits="userSpaceOnUse" color-interpolation-filters="sRGB">
<feFlood flood-opacity="0" result="BackgroundImageFix"/>
<feColorMatrix in="SourceAlpha" type="matrix" values="0 0 0 0 0 0 0 0 0 0 0 0 0 0 0 0 0 0 127 0" result="hardAlpha"/>
<feOffset dx="-1" dy="1.5"/>
<feComposite in2="hardAlpha" operator="out"/>
<feColorMatrix type="matrix" values="0 0 0 0 0.972549 0 0 0 0 0.113725 0 0 0 0 0.984314 0 0 0 1 0"/>
<feBlend mode="normal" in2="BackgroundImageFix" result="effect1_dropShadow_1332_49877"/>
<feBlend mode="normal" in="SourceGraphic" in2="effect1_dropShadow_1332_49877" result="shape"/>
</filter>
<linearGradient id="paint0_linear_1332_49877" x1="45" y1="45" x2="123.025" y2="168.652" gradientUnits="userSpaceOnUse">
<stop stop-color="white" stop-opacity="0.1"/>
<stop offset="1" stop-color="white" stop-opacity="0.05"/>
</linearGradient>
<clipPath id="clip0_1332_49877">
<rect width="48" height="48" fill="white" transform="translate(74 74)"/>
</clipPath>
</defs>
</svg>
