<svg width="196" height="196" viewBox="0 0 196 196" fill="none" xmlns="http://www.w3.org/2000/svg">
<g filter="url(#filter0_d_1332_49882)">
<circle cx="98" cy="98" r="53" fill="url(#paint0_linear_1332_49882)" shape-rendering="crispEdges"/>
</g>
<g clip-path="url(#clip0_1332_49882)">
<g clip-path="url(#clip1_1332_49882)">
<g filter="url(#filter1_d_1332_49882)">
<path d="M74 87.5C74 86.3065 74.4741 85.1619 75.318 84.318C76.1619 83.4741 77.3065 83 78.5 83H117.5C118.693 83 119.838 83.4741 120.682 84.318C121.526 85.1619 122 86.3065 122 87.5V92C122 92.3978 121.842 92.7794 121.561 93.0607C121.279 93.342 120.898 93.5 120.5 93.5C119.307 93.5 118.162 93.9741 117.318 94.818C116.474 95.6619 116 96.8065 116 98C116 99.1935 116.474 100.338 117.318 101.182C118.162 102.026 119.307 102.5 120.5 102.5C120.898 102.5 121.279 102.658 121.561 102.939C121.842 103.221 122 103.602 122 104V108.5C122 109.693 121.526 110.838 120.682 111.682C119.838 112.526 118.693 113 117.5 113H78.5C77.3065 113 76.1619 112.526 75.318 111.682C74.4741 110.838 74 109.693 74 108.5V104C74 103.602 74.158 103.221 74.4393 102.939C74.7206 102.658 75.1022 102.5 75.5 102.5C76.6935 102.5 77.8381 102.026 78.682 101.182C79.5259 100.338 80 99.1935 80 98C80 96.8065 79.5259 95.6619 78.682 94.818C77.8381 93.9741 76.6935 93.5 75.5 93.5C75.1022 93.5 74.7206 93.342 74.4393 93.0607C74.158 92.7794 74 92.3978 74 92V87.5ZM78.5 86C78.1022 86 77.7206 86.158 77.4393 86.4393C77.158 86.7206 77 87.1022 77 87.5V90.65C78.6954 90.9943 80.2197 91.9141 81.3146 93.2536C82.4094 94.5931 83.0075 96.27 83.0075 98C83.0075 99.73 82.4094 101.407 81.3146 102.746C80.2197 104.086 78.6954 105.006 77 105.35V108.5C77 108.898 77.158 109.279 77.4393 109.561C77.7206 109.842 78.1022 110 78.5 110H117.5C117.898 110 118.279 109.842 118.561 109.561C118.842 109.279 119 108.898 119 108.5V105.35C117.305 105.006 115.78 104.086 114.685 102.746C113.591 101.407 112.992 99.73 112.992 98C112.992 96.27 113.591 94.5931 114.685 93.2536C115.78 91.9141 117.305 90.9943 119 90.65V87.5C119 87.1022 118.842 86.7206 118.561 86.4393C118.279 86.158 117.898 86 117.5 86H78.5Z" fill="white"/>
</g>
<path d="M93.7211 90.6152V99.846H93.4223C93.3684 99.846 93.3227 99.8373 93.2854 99.8199C93.2522 99.7982 93.219 99.7634 93.1858 99.7155L87.4647 91.7047C87.4771 91.8351 87.4834 91.9591 87.4834 92.0765V99.846H86.9231V90.6152H87.2406C87.2987 90.6152 87.3423 90.6239 87.3713 90.6413C87.4045 90.6544 87.4398 90.687 87.4771 90.7392L93.1858 98.7305C93.1733 98.6 93.1671 98.4761 93.1671 98.3586V90.6152H93.7211Z" fill="white"/>
<path d="M96.9631 91.1697V95.0512H100.978V95.6057H96.9631V99.846H96.3219V90.6152H101.601V91.1697H96.9631Z" fill="white"/>
<path d="M109.077 91.1828H105.983V99.846H105.342V91.1828H102.229V90.6152H109.077V91.1828Z" fill="white"/>
<path d="M98.8289 104.884C98.7846 104.871 98.7384 104.862 98.6904 104.857C98.6443 104.849 98.5898 104.846 98.527 104.846C98.3609 104.846 98.2095 104.88 98.0729 104.948C97.9381 105.015 97.8227 105.102 97.7267 105.211C97.6326 105.32 97.5587 105.443 97.5052 105.579C97.4535 105.714 97.4277 105.851 97.4277 105.989C97.4277 106.063 97.4369 106.132 97.4553 106.197C97.4738 106.26 97.5015 106.314 97.5384 106.36C97.5753 106.407 97.6206 106.443 97.6741 106.471C97.7295 106.497 97.7941 106.51 97.868 106.51C97.9344 106.51 98.0027 106.499 98.0729 106.477C98.1449 106.455 98.2132 106.415 98.2778 106.358C98.3443 106.299 98.4061 106.22 98.4633 106.122C98.5206 106.023 98.5686 105.896 98.6073 105.743L98.8289 104.884ZM98.8178 105.726C98.7735 105.896 98.7523 106.034 98.7541 106.139C98.756 106.244 98.7735 106.326 98.8067 106.385C98.84 106.443 98.8843 106.481 98.9397 106.502C98.9969 106.52 99.0578 106.529 99.1224 106.529C99.2277 106.529 99.3283 106.502 99.4243 106.446C99.5203 106.391 99.6052 106.312 99.679 106.211C99.7529 106.107 99.811 105.983 99.8535 105.837C99.8978 105.691 99.92 105.528 99.92 105.347C99.92 105.074 99.8747 104.835 99.7843 104.632C99.6957 104.427 99.5738 104.258 99.4187 104.123C99.2655 103.988 99.0864 103.887 98.8815 103.821C98.6766 103.755 98.4587 103.721 98.228 103.721C97.975 103.721 97.735 103.77 97.508 103.868C97.2827 103.966 97.0843 104.103 96.9126 104.278C96.7427 104.453 96.607 104.663 96.5055 104.907C96.4058 105.148 96.356 105.414 96.356 105.704C96.356 106.031 96.4077 106.319 96.511 106.568C96.6163 106.815 96.7584 107.023 96.9375 107.191C97.1166 107.357 97.3252 107.483 97.5633 107.568C97.8033 107.655 98.0581 107.698 98.3277 107.698C98.6009 107.698 98.8501 107.667 99.0753 107.604C99.3024 107.541 99.5083 107.45 99.6929 107.33C99.715 107.315 99.7353 107.31 99.7538 107.316C99.7723 107.321 99.7861 107.334 99.7953 107.355L99.8369 107.457C99.6301 107.594 99.4021 107.699 99.1529 107.773C98.9055 107.847 98.6304 107.883 98.3277 107.883C98.023 107.883 97.7387 107.835 97.4747 107.737C97.2107 107.641 96.9809 107.499 96.7852 107.313C96.5895 107.128 96.4353 106.901 96.3227 106.632C96.2101 106.36 96.1538 106.051 96.1538 105.704C96.1538 105.396 96.2083 105.11 96.3172 104.846C96.4261 104.582 96.5747 104.353 96.763 104.159C96.9513 103.965 97.171 103.814 97.4221 103.705C97.6732 103.594 97.9418 103.539 98.228 103.539C98.4753 103.539 98.7126 103.577 98.9397 103.655C99.1667 103.731 99.367 103.845 99.5406 103.998C99.716 104.15 99.8553 104.338 99.9587 104.563C100.064 104.788 100.117 105.05 100.117 105.347C100.117 105.548 100.09 105.732 100.036 105.898C99.9827 106.064 99.9089 106.207 99.8147 106.327C99.7224 106.445 99.6135 106.538 99.488 106.604C99.3624 106.671 99.2286 106.704 99.0864 106.704C98.924 106.704 98.8012 106.661 98.7181 106.576C98.6369 106.49 98.5944 106.365 98.5907 106.203C98.4873 106.376 98.3701 106.502 98.239 106.579C98.1098 106.655 97.9695 106.693 97.8181 106.693C97.7147 106.693 97.6252 106.675 97.5495 106.64C97.4738 106.603 97.411 106.553 97.3612 106.491C97.3113 106.428 97.2735 106.354 97.2477 106.269C97.2237 106.184 97.2117 106.093 97.2117 105.995C97.2117 105.838 97.2412 105.681 97.3003 105.524C97.3612 105.365 97.4489 105.223 97.5633 105.098C97.6797 104.97 97.8218 104.867 97.9898 104.787C98.1578 104.708 98.3489 104.668 98.563 104.668C98.6609 104.668 98.7523 104.677 98.8372 104.693C98.924 104.71 99.0015 104.734 99.0698 104.765L98.8178 105.726Z" fill="white"/>
<path d="M103 104.469V107.224H102.853C102.807 107.224 102.78 107.2 102.773 107.152L102.748 106.743C102.621 106.901 102.473 107.029 102.305 107.125C102.139 107.221 101.953 107.269 101.748 107.269C101.595 107.269 101.461 107.245 101.347 107.197C101.232 107.149 101.137 107.079 101.062 106.989C100.986 106.899 100.929 106.79 100.89 106.662C100.851 106.535 100.832 106.391 100.832 106.23V104.469H101.098V106.23C101.098 106.489 101.157 106.692 101.275 106.839C101.393 106.985 101.573 107.058 101.815 107.058C101.994 107.058 102.161 107.013 102.316 106.923C102.473 106.83 102.612 106.703 102.734 106.54V104.469H103Z" fill="white"/>
<path d="M105.422 104.81C105.407 104.835 105.386 104.848 105.358 104.848C105.338 104.848 105.312 104.837 105.281 104.815C105.249 104.791 105.207 104.765 105.153 104.738C105.102 104.708 105.037 104.682 104.96 104.66C104.882 104.636 104.788 104.624 104.677 104.624C104.577 104.624 104.486 104.639 104.403 104.668C104.322 104.696 104.252 104.734 104.192 104.782C104.135 104.83 104.091 104.886 104.06 104.951C104.028 105.014 104.012 105.08 104.012 105.15C104.012 105.237 104.035 105.309 104.079 105.366C104.123 105.423 104.18 105.472 104.251 105.513C104.323 105.554 104.405 105.589 104.497 105.618C104.589 105.648 104.683 105.677 104.777 105.707C104.873 105.736 104.967 105.77 105.059 105.807C105.152 105.842 105.233 105.886 105.303 105.939C105.375 105.993 105.433 106.059 105.477 106.136C105.522 106.214 105.544 106.308 105.544 106.419C105.544 106.539 105.523 106.65 105.48 106.754C105.438 106.857 105.375 106.947 105.292 107.022C105.211 107.098 105.11 107.158 104.99 107.202C104.87 107.247 104.732 107.269 104.577 107.269C104.384 107.269 104.216 107.238 104.076 107.177C103.936 107.115 103.81 107.033 103.7 106.934L103.76 106.839C103.77 106.825 103.78 106.814 103.791 106.806C103.804 106.799 103.82 106.795 103.841 106.795C103.865 106.795 103.893 106.81 103.927 106.839C103.962 106.869 104.008 106.901 104.065 106.936C104.122 106.97 104.192 107.001 104.276 107.031C104.36 107.06 104.465 107.075 104.588 107.075C104.705 107.075 104.807 107.059 104.896 107.028C104.984 106.995 105.058 106.95 105.117 106.895C105.176 106.839 105.221 106.775 105.25 106.701C105.282 106.625 105.297 106.546 105.297 106.463C105.297 106.371 105.275 106.294 105.231 106.233C105.187 106.172 105.128 106.12 105.056 106.078C104.984 106.035 104.902 105.999 104.81 105.97C104.72 105.94 104.626 105.911 104.53 105.881C104.434 105.852 104.34 105.819 104.248 105.784C104.157 105.749 104.076 105.705 104.004 105.651C103.932 105.598 103.874 105.533 103.83 105.458C103.785 105.38 103.763 105.284 103.763 105.17C103.763 105.072 103.784 104.978 103.827 104.887C103.869 104.797 103.929 104.717 104.007 104.649C104.086 104.581 104.182 104.526 104.295 104.486C104.408 104.445 104.534 104.425 104.674 104.425C104.842 104.425 104.991 104.449 105.12 104.497C105.251 104.545 105.37 104.619 105.477 104.718L105.422 104.81Z" fill="white"/>
<path d="M108.193 105.568C108.193 105.421 108.172 105.289 108.129 105.172C108.089 105.054 108.03 104.955 107.955 104.873C107.879 104.792 107.789 104.73 107.683 104.688C107.58 104.643 107.466 104.621 107.34 104.621C107.198 104.621 107.07 104.643 106.958 104.688C106.845 104.732 106.747 104.796 106.664 104.879C106.583 104.962 106.518 105.062 106.468 105.178C106.418 105.294 106.385 105.424 106.368 105.568H108.193ZM106.354 105.737V105.79C106.354 105.997 106.378 106.179 106.426 106.335C106.474 106.492 106.542 106.624 106.631 106.731C106.72 106.837 106.827 106.916 106.952 106.97C107.078 107.023 107.218 107.05 107.373 107.05C107.512 107.05 107.632 107.035 107.733 107.006C107.835 106.974 107.92 106.94 107.988 106.903C108.058 106.864 108.114 106.83 108.154 106.801C108.195 106.769 108.224 106.754 108.243 106.754C108.267 106.754 108.285 106.763 108.298 106.781L108.37 106.87C108.326 106.925 108.267 106.977 108.193 107.025C108.121 107.073 108.04 107.115 107.949 107.15C107.861 107.183 107.765 107.21 107.661 107.23C107.56 107.25 107.457 107.26 107.354 107.26C107.166 107.26 106.994 107.228 106.839 107.163C106.684 107.097 106.551 107.001 106.44 106.875C106.329 106.75 106.243 106.597 106.182 106.416C106.123 106.233 106.094 106.024 106.094 105.79C106.094 105.592 106.122 105.411 106.177 105.244C106.234 105.076 106.315 104.932 106.421 104.812C106.528 104.691 106.658 104.595 106.811 104.527C106.966 104.459 107.142 104.425 107.337 104.425C107.492 104.425 107.636 104.451 107.769 104.505C107.902 104.559 108.018 104.637 108.115 104.74C108.213 104.842 108.29 104.967 108.345 105.117C108.402 105.267 108.431 105.438 108.431 105.632C108.431 105.673 108.426 105.7 108.414 105.715C108.403 105.73 108.385 105.737 108.359 105.737H106.354Z" fill="white"/>
<path d="M109.4 105.134C109.443 105.021 109.491 104.921 109.544 104.835C109.6 104.746 109.662 104.671 109.733 104.61C109.805 104.549 109.884 104.503 109.971 104.472C110.059 104.439 110.157 104.422 110.264 104.422C110.321 104.422 110.378 104.427 110.433 104.439C110.489 104.448 110.537 104.465 110.58 104.491L110.558 104.674C110.549 104.703 110.531 104.718 110.505 104.718C110.483 104.718 110.449 104.712 110.403 104.699C110.358 104.686 110.299 104.679 110.225 104.679C110.118 104.679 110.023 104.696 109.94 104.729C109.859 104.761 109.785 104.809 109.719 104.873C109.654 104.938 109.597 105.018 109.547 105.114C109.499 105.208 109.455 105.317 109.414 105.441V107.224H109.148V104.469H109.289C109.321 104.469 109.343 104.475 109.356 104.488C109.369 104.501 109.377 104.523 109.381 104.555L109.4 105.134Z" fill="white"/>
</g>
</g>
<defs>
<filter id="filter0_d_1332_49882" x="0" y="0" width="196" height="196" filterUnits="userSpaceOnUse" color-interpolation-filters="sRGB">
<feFlood flood-opacity="0" result="BackgroundImageFix"/>
<feColorMatrix in="SourceAlpha" type="matrix" values="0 0 0 0 0 0 0 0 0 0 0 0 0 0 0 0 0 0 127 0" result="hardAlpha"/>
<feMorphology radius="5" operator="dilate" in="SourceAlpha" result="effect1_dropShadow_1332_49882"/>
<feOffset/>
<feGaussianBlur stdDeviation="20"/>
<feComposite in2="hardAlpha" operator="out"/>
<feColorMatrix type="matrix" values="0 0 0 0 1 0 0 0 0 1 0 0 0 0 1 0 0 0 1 0"/>
<feBlend mode="normal" in2="BackgroundImageFix" result="effect1_dropShadow_1332_49882"/>
<feBlend mode="normal" in="SourceGraphic" in2="effect1_dropShadow_1332_49882" result="shape"/>
</filter>
<filter id="filter1_d_1332_49882" x="73" y="83" width="49" height="31.5" filterUnits="userSpaceOnUse" color-interpolation-filters="sRGB">
<feFlood flood-opacity="0" result="BackgroundImageFix"/>
<feColorMatrix in="SourceAlpha" type="matrix" values="0 0 0 0 0 0 0 0 0 0 0 0 0 0 0 0 0 0 127 0" result="hardAlpha"/>
<feOffset dx="-1" dy="1.5"/>
<feComposite in2="hardAlpha" operator="out"/>
<feColorMatrix type="matrix" values="0 0 0 0 0.972549 0 0 0 0 0.113725 0 0 0 0 0.984314 0 0 0 1 0"/>
<feBlend mode="normal" in2="BackgroundImageFix" result="effect1_dropShadow_1332_49882"/>
<feBlend mode="normal" in="SourceGraphic" in2="effect1_dropShadow_1332_49882" result="shape"/>
</filter>
<linearGradient id="paint0_linear_1332_49882" x1="45" y1="45" x2="123.025" y2="168.652" gradientUnits="userSpaceOnUse">
<stop stop-color="white" stop-opacity="0.1"/>
<stop offset="1" stop-color="white" stop-opacity="0.05"/>
</linearGradient>
<clipPath id="clip0_1332_49882">
<rect width="48" height="48" fill="white" transform="translate(74 74)"/>
</clipPath>
<clipPath id="clip1_1332_49882">
<rect width="48" height="48" fill="white" transform="translate(74 74)"/>
</clipPath>
</defs>
</svg>
