<svg width="150" height="150" viewBox="0 0 150 150" fill="none" xmlns="http://www.w3.org/2000/svg">
<g filter="url(#filter0_d_1360_37942)">
<path fill-rule="evenodd" clip-rule="evenodd" d="M43.75 12.5C35.462 12.5 27.5134 15.7924 21.6529 21.6529C15.7924 27.5134 12.5 35.462 12.5 43.75V106.25C12.5 114.538 15.7924 122.487 21.6529 128.347C27.5134 134.208 35.462 137.5 43.75 137.5H106.25C114.538 137.5 122.487 134.208 128.347 128.347C134.208 122.487 137.5 114.538 137.5 106.25V43.75C137.5 35.462 134.208 27.5134 128.347 21.6529C122.487 15.7924 114.538 12.5 106.25 12.5H43.75ZM98.3125 66.775C98.8739 66.1758 99.3118 65.472 99.6012 64.7036C99.8906 63.9352 100.026 63.1173 99.9991 62.2967C99.9724 61.4761 99.7843 60.6687 99.4456 59.9208C99.1069 59.1728 98.6242 58.4989 98.025 57.9375C97.4258 57.3761 96.722 56.9382 95.9536 56.6488C95.1852 56.3594 94.3673 56.2242 93.5467 56.2509C92.7261 56.2776 91.9187 56.4657 91.1708 56.8044C90.4228 57.1431 89.7489 57.6258 89.1875 58.225L69.9188 78.7875L60.4 70.3313C59.1529 69.2945 57.5516 68.7831 55.9344 68.9051C54.3172 69.0271 52.8107 69.773 51.7333 70.9851C50.6558 72.1973 50.0917 73.7808 50.1601 75.4011C50.2286 77.0215 50.9242 78.5518 52.1 79.6687L66.1625 92.1687C67.3793 93.2496 68.9697 93.8132 70.5956 93.7397C72.2214 93.6661 73.7545 92.9613 74.8688 91.775L98.3063 66.775H98.3125Z" fill="white"/>
</g>
<defs>
<filter id="filter0_d_1360_37942" x="-2" y="0" width="152" height="152.5" filterUnits="userSpaceOnUse" color-interpolation-filters="sRGB">
<feFlood flood-opacity="0" result="BackgroundImageFix"/>
<feColorMatrix in="SourceAlpha" type="matrix" values="0 0 0 0 0 0 0 0 0 0 0 0 0 0 0 0 0 0 127 0" result="hardAlpha"/>
<feOffset dx="-2" dy="2.5"/>
<feComposite in2="hardAlpha" operator="out"/>
<feColorMatrix type="matrix" values="0 0 0 0 0.972549 0 0 0 0 0.113725 0 0 0 0 0.984314 0 0 0 1 0"/>
<feBlend mode="normal" in2="BackgroundImageFix" result="effect1_dropShadow_1360_37942"/>
<feBlend mode="normal" in="SourceGraphic" in2="effect1_dropShadow_1360_37942" result="shape"/>
</filter>
</defs>
</svg>
