<svg width="60" height="55" viewBox="0 0 60 55" fill="none" xmlns="http://www.w3.org/2000/svg">
<g filter="url(#filter0_b_796_17753)">
<rect width="60" height="55" rx="8" fill="url(#paint0_linear_796_17753)" fill-opacity="0.2"/>
</g>
<g filter="url(#filter1_d_796_17753)">
<path d="M25.8807 24.1268C26.2715 23.8438 26.4602 23.3766 26.4602 22.7342C26.4736 22.4287 26.4107 22.1277 26.276 21.8537C26.1547 21.6336 25.975 21.4494 25.7549 21.3191C25.5266 21.1807 25.2732 21.0891 25.0092 21.0496C24.7217 20.9957 24.4297 20.9688 24.1422 20.9732H20.9842V24.5535H24.4027C24.9912 24.558 25.4898 24.4143 25.8807 24.1268ZM26.4107 27.3611C25.9705 27.0242 25.382 26.858 24.6498 26.858H20.9752V31.0807H24.5779C24.9148 31.0807 25.2248 31.0492 25.5258 30.9863C25.8105 30.9306 26.082 30.8208 26.3254 30.6629C26.5545 30.5146 26.7387 30.3125 26.8779 30.052C27.0127 29.7914 27.0801 29.459 27.0801 29.0592C27.0801 28.2641 26.8555 27.7025 26.4107 27.3611ZM30 5.875C18.8863 5.875 9.875 14.8863 9.875 26C9.875 37.1137 18.8863 46.125 30 46.125C41.1137 46.125 50.125 37.1137 50.125 26C50.125 14.8863 41.1137 5.875 30 5.875ZM33.8857 18.7631H40.1029V20.277H33.8857V18.7631ZM30 31.2469C29.7092 31.7989 29.294 32.2756 28.7871 32.6395C28.257 33.0078 27.6686 33.2773 27.0441 33.4346C26.3909 33.6096 25.7169 33.6958 25.0406 33.6906H17.6016V18.3678H24.834C25.5662 18.3678 26.2311 18.4352 26.8375 18.5609C27.4395 18.6867 27.9516 18.9023 28.3828 19.1943C28.8096 19.4863 29.1465 19.8771 29.3846 20.3623C29.6182 20.843 29.7395 21.4449 29.7395 22.1592C29.7395 22.9318 29.5643 23.5697 29.2139 24.0863C28.859 24.6029 28.3469 25.0207 27.6506 25.3486C28.5984 25.6182 29.2947 26.0988 29.7529 26.7727C30.2201 27.4555 30.4492 28.273 30.4492 29.2344C30.4492 30.016 30.301 30.6854 30 31.2469ZM42.5242 28.875H34.5102C34.5102 29.7465 34.8111 30.582 35.2648 31.0312C35.723 31.476 36.3789 31.7006 37.2369 31.7006C37.8568 31.7006 38.3824 31.5434 38.8316 31.2334C39.2764 30.9234 39.5459 30.5955 39.6447 30.2541H42.3311C41.8998 31.5883 41.2439 32.5406 40.3545 33.1156C39.474 33.6906 38.3959 33.9781 37.1426 33.9781C36.2666 33.9781 35.4805 33.8344 34.7752 33.5604C34.0969 33.2953 33.4859 32.891 32.9828 32.3699C32.4867 31.8348 32.1033 31.2054 31.8553 30.5191C31.5812 29.76 31.4465 28.9604 31.4555 28.1562C31.4555 27.3252 31.5947 26.5525 31.8643 25.8338C32.3809 24.4367 33.4545 23.3182 34.8246 22.7387C35.5568 22.4332 36.343 22.2805 37.1381 22.2895C38.0814 22.2895 38.899 22.4691 39.6088 22.8375C40.2921 23.1892 40.8854 23.6934 41.3428 24.3109C41.7965 24.9264 42.1154 25.6271 42.3176 26.4178C42.5107 27.1949 42.5781 28.0125 42.5242 28.875ZM37.0437 24.5805C36.5586 24.5805 36.1498 24.6658 35.8354 24.832C35.5209 24.9982 35.2604 25.2049 35.0627 25.443C34.8745 25.6728 34.7353 25.9389 34.6539 26.2246C34.582 26.4627 34.5326 26.7053 34.5146 26.9523H39.4785C39.4066 26.1752 39.1371 25.6002 38.7777 25.1959C38.4004 24.7961 37.7939 24.5805 37.0437 24.5805Z" fill="white"/>
</g>
<defs>
<filter id="filter0_b_796_17753" x="-120" y="-120" width="300" height="295" filterUnits="userSpaceOnUse" color-interpolation-filters="sRGB">
<feFlood flood-opacity="0" result="BackgroundImageFix"/>
<feGaussianBlur in="BackgroundImageFix" stdDeviation="60"/>
<feComposite in2="SourceAlpha" operator="in" result="effect1_backgroundBlur_796_17753"/>
<feBlend mode="normal" in="SourceGraphic" in2="effect1_backgroundBlur_796_17753" result="shape"/>
</filter>
<filter id="filter1_d_796_17753" x="7.875" y="5.875" width="42.25" height="42.75" filterUnits="userSpaceOnUse" color-interpolation-filters="sRGB">
<feFlood flood-opacity="0" result="BackgroundImageFix"/>
<feColorMatrix in="SourceAlpha" type="matrix" values="0 0 0 0 0 0 0 0 0 0 0 0 0 0 0 0 0 0 127 0" result="hardAlpha"/>
<feOffset dx="-2" dy="2.5"/>
<feComposite in2="hardAlpha" operator="out"/>
<feColorMatrix type="matrix" values="0 0 0 0 0.972549 0 0 0 0 0.113725 0 0 0 0 0.984314 0 0 0 1 0"/>
<feBlend mode="normal" in2="BackgroundImageFix" result="effect1_dropShadow_796_17753"/>
<feBlend mode="normal" in="SourceGraphic" in2="effect1_dropShadow_796_17753" result="shape"/>
</filter>
<linearGradient id="paint0_linear_796_17753" x1="-0.913044" y1="42.3762" x2="62.6087" y2="42.3762" gradientUnits="userSpaceOnUse">
<stop stop-color="white"/>
<stop offset="1" stop-color="white" stop-opacity="0.24"/>
</linearGradient>
</defs>
</svg>
