<svg width="174" height="61" viewBox="0 0 174 61" fill="none" xmlns="http://www.w3.org/2000/svg">
<g filter="url(#filter0_d_1313_50005)">
<path d="M7.52478 4.51221C7.52478 2.66004 9.02625 1.15857 10.8784 1.15857H15.5443V7.86584V52.1338V58.8411H10.8784C9.02625 58.8411 7.52478 57.3396 7.52478 55.4875V55.4875C7.52478 53.6353 9.02625 52.1338 10.8784 52.1338H11.5346V7.86584H10.8784C9.02625 7.86584 7.52478 6.36437 7.52478 4.51221V4.51221Z" fill="#B00D9D"/>
<rect x="1.51013" y="11.4764" width="4.00978" height="38.0794" rx="2.00489" fill="#B00D9D"/>
<rect width="144.911" height="58" transform="translate(14.6906 1)" fill="#B00D9D"/>
<path d="M167.475 4.51221C167.475 2.66004 165.974 1.15857 164.122 1.15857H159.456V7.86584V52.1338V58.8411H164.122C165.974 58.8411 167.475 57.3396 167.475 55.4875V55.4875C167.475 53.6353 165.974 52.1338 164.122 52.1338H163.465V7.86584H164.122C165.974 7.86584 167.475 6.36437 167.475 4.51221V4.51221Z" fill="#B00D9D"/>
<rect width="4.00978" height="36.0159" rx="2.00489" transform="matrix(-1 0 0 1 173.49 12.5078)" fill="#B00D9D"/>
</g>
<defs>
<filter id="filter0_d_1313_50005" x="0" y="0" width="174" height="61.5" filterUnits="userSpaceOnUse" color-interpolation-filters="sRGB">
<feFlood flood-opacity="0" result="BackgroundImageFix"/>
<feColorMatrix in="SourceAlpha" type="matrix" values="0 0 0 0 0 0 0 0 0 0 0 0 0 0 0 0 0 0 127 0" result="hardAlpha"/>
<feOffset dx="-1" dy="1.5"/>
<feComposite in2="hardAlpha" operator="out"/>
<feColorMatrix type="matrix" values="0 0 0 0 0.972549 0 0 0 0 0.113725 0 0 0 0 0.984314 0 0 0 1 0"/>
<feBlend mode="normal" in2="BackgroundImageFix" result="effect1_dropShadow_1313_50005"/>
<feBlend mode="normal" in="SourceGraphic" in2="effect1_dropShadow_1313_50005" result="shape"/>
</filter>
</defs>
</svg>
