<svg width="174" height="58" viewBox="0 0 174 58" fill="none" xmlns="http://www.w3.org/2000/svg">
<path d="M6 3.37209C6 1.50974 7.50974 0 9.37209 0H14.0196V58H9.37209C7.50973 58 6 56.4903 6 54.6279C6 52.7655 7.50974 51.2558 9.37209 51.2558H10.0098V6.74419H9.37209C7.50974 6.74419 6 5.23445 6 3.37209Z" fill="#B00D9D"/>
<path d="M167.02 3.37209C167.02 1.50974 165.51 0 163.648 0H159V58H163.648C165.51 58 167.02 56.4903 167.02 54.6279C167.02 52.7655 165.51 51.2558 163.648 51.2558H163.01V6.74419H163.648C165.51 6.74419 167.02 5.23445 167.02 3.37209Z" fill="#B00D9D"/>
<path d="M173.029 12.997C173.029 11.8897 172.132 10.9921 171.024 10.9921C169.917 10.9921 169.02 11.8897 169.02 12.997V45.003C169.02 46.1103 169.917 47.0079 171.024 47.0079C172.132 47.0079 173.029 46.1103 173.029 45.003V12.997Z" fill="#B00D9D"/>
<path d="M0 12.4813C0 11.3741 0.897621 10.4764 2.00489 10.4764C3.11216 10.4764 4.00978 11.3741 4.00978 12.4813V46.5509C4.00978 47.6582 3.11216 48.5558 2.00489 48.5558C0.897621 48.5558 0 47.6582 0 46.5509V12.4813Z" fill="#B00D9D"/>
<path d="M14 0H159V58H14V0Z" fill="#B00D9D"/>
</svg>
