<svg width="60" height="55" viewBox="0 0 60 55" fill="none" xmlns="http://www.w3.org/2000/svg">
<g filter="url(#filter0_b_424_61824)">
<rect width="60" height="55" rx="8" fill="url(#paint0_linear_424_61824)" fill-opacity="0.2"/>
</g>
<g clip-path="url(#clip0_424_61824)">
<g filter="url(#filter1_d_424_61824)">
<path fill-rule="evenodd" clip-rule="evenodd" d="M31.5 7C20.7344 7 12 15.6405 12 26.2903C12 36.9402 20.7344 45.5806 31.5 45.5806C42.2445 45.5806 51 36.9402 51 26.2903C51 15.6405 42.2445 7 31.5 7ZM44.3797 15.8912C46.7806 18.7837 48.1092 22.4016 48.1449 26.144C47.5956 26.0395 42.0966 24.9304 36.5554 25.6216C36.427 25.3483 36.3214 25.0557 36.1946 24.7632C35.85 23.9584 35.4837 23.163 35.0961 22.3776C41.2289 19.9084 44.0206 16.3526 44.3797 15.8912ZM31.5 9.84693C35.7299 9.84693 39.6006 11.4143 42.5403 13.9879C42.2445 14.4059 39.7274 17.7335 33.8059 19.9293C31.0759 14.9717 28.0534 10.9111 27.587 10.2842C28.8696 9.98789 30.1829 9.84061 31.5 9.84532V9.84693ZM24.415 11.3934C24.8586 11.9801 27.8194 16.06 30.59 20.9131C22.8062 22.9643 15.9325 22.9226 15.1931 22.9226C16.2721 17.817 19.7626 13.57 24.415 11.3934ZM14.834 26.3112V25.8097C15.5539 25.8306 23.6318 25.9351 31.9452 23.4659C32.4311 24.387 32.8748 25.3274 33.2973 26.2694C33.086 26.3321 32.8536 26.3948 32.6424 26.4575C24.0559 29.1983 19.4864 36.6878 19.1061 37.3163C16.3557 34.2966 14.8337 30.3759 14.834 26.3112ZM31.5 42.7771C27.7983 42.7829 24.2015 41.5603 21.2853 39.3049C21.581 38.6972 24.9643 32.2526 34.3551 29.0103C34.3974 28.9894 34.4201 28.9894 34.4607 28.9685C36.8089 34.9726 37.7595 40.0154 38.0146 41.4589C36.0045 42.3174 33.8059 42.7771 31.5 42.7771ZM40.7853 39.9527C40.6163 38.948 39.7274 34.1367 37.5483 28.2145C42.7726 27.3995 47.3405 28.7386 47.9125 28.9267C47.1926 33.5081 44.5276 37.4626 40.7853 39.9527Z" fill="white"/>
</g>
</g>
<defs>
<filter id="filter0_b_424_61824" x="-120" y="-120" width="300" height="295" filterUnits="userSpaceOnUse" color-interpolation-filters="sRGB">
<feFlood flood-opacity="0" result="BackgroundImageFix"/>
<feGaussianBlur in="BackgroundImageFix" stdDeviation="60"/>
<feComposite in2="SourceAlpha" operator="in" result="effect1_backgroundBlur_424_61824"/>
<feBlend mode="normal" in="SourceGraphic" in2="effect1_backgroundBlur_424_61824" result="shape"/>
</filter>
<filter id="filter1_d_424_61824" x="10" y="7" width="41" height="41.0806" filterUnits="userSpaceOnUse" color-interpolation-filters="sRGB">
<feFlood flood-opacity="0" result="BackgroundImageFix"/>
<feColorMatrix in="SourceAlpha" type="matrix" values="0 0 0 0 0 0 0 0 0 0 0 0 0 0 0 0 0 0 127 0" result="hardAlpha"/>
<feOffset dx="-2" dy="2.5"/>
<feComposite in2="hardAlpha" operator="out"/>
<feColorMatrix type="matrix" values="0 0 0 0 0.972549 0 0 0 0 0.113725 0 0 0 0 0.984314 0 0 0 1 0"/>
<feBlend mode="normal" in2="BackgroundImageFix" result="effect1_dropShadow_424_61824"/>
<feBlend mode="normal" in="SourceGraphic" in2="effect1_dropShadow_424_61824" result="shape"/>
</filter>
<linearGradient id="paint0_linear_424_61824" x1="-0.913044" y1="42.3762" x2="62.6087" y2="42.3762" gradientUnits="userSpaceOnUse">
<stop stop-color="white"/>
<stop offset="1" stop-color="white" stop-opacity="0.24"/>
</linearGradient>
<clipPath id="clip0_424_61824">
<rect width="42" height="41" fill="white" transform="translate(9 7)"/>
</clipPath>
</defs>
</svg>
