<svg width="28" height="27" viewBox="0 0 28 27" fill="none" xmlns="http://www.w3.org/2000/svg">
<g clip-path="url(#clip0_1437_619)">
<path d="M0.011975 19.3032C-0.0246959 19.5081 0.0227637 19.719 0.144043 19.8895C0.26527 20.06 0.450432 20.1761 0.658659 20.2122L4.19698 20.8264L1.96808 8.38293L0.011975 19.3032Z" fill="#E8E8ED"/>
<path d="M4.26226 0.119815C4.05356 0.0825136 3.83821 0.128552 3.66405 0.247832C3.48994 0.367164 3.37126 0.549903 3.33443 0.755609L2.48898 5.47554L18.5749 2.68345L4.26226 0.119815Z" fill="#E8E8ED"/>
<path d="M27.1987 22.7015L23.8763 4.1539C23.7999 3.72711 23.3865 3.4423 22.9528 3.51738L4.11085 6.7878C3.67729 6.86303 3.38775 7.27004 3.46417 7.69684L6.7865 26.2444C6.82322 26.4494 6.94115 26.6316 7.11436 26.751C7.24929 26.844 7.4091 26.8929 7.57163 26.8929C7.6177 26.8929 7.66405 26.889 7.71002 26.881L26.552 23.6106C26.7602 23.5745 26.9453 23.4583 27.0666 23.2879C27.1879 23.1174 27.2353 22.9065 27.1987 22.7015ZM7.71193 13.3343C7.63551 12.9075 7.92505 12.5005 8.35861 12.4253L20.92 10.245C21.3539 10.1698 21.7671 10.4547 21.8435 10.8815C21.9199 11.3083 21.6304 11.7153 21.1968 11.7906L8.63545 13.9709C8.58863 13.979 8.54202 13.983 8.4961 13.983C8.11648 13.983 7.78012 13.7151 7.71193 13.3343ZM18.1171 18.6999L9.74291 20.1535C9.69609 20.1616 9.64948 20.1655 9.60356 20.1655C9.22394 20.1655 8.88758 19.8976 8.81939 19.5169C8.74297 19.0901 9.03251 18.6831 9.46607 18.6078L17.8403 17.1543C18.2741 17.079 18.6873 17.364 18.7638 17.7908C18.8402 18.2176 18.5507 18.6246 18.1171 18.6999ZM21.7505 14.8818L9.18913 17.0622C9.14231 17.0703 9.0957 17.0742 9.04978 17.0742C8.67016 17.0742 8.33379 16.8063 8.26561 16.4256C8.18918 15.9988 8.47872 15.5918 8.91229 15.5165L21.4737 13.3362C21.9075 13.261 22.3207 13.546 22.3972 13.9728C22.4736 14.3996 22.1841 14.8066 21.7505 14.8818Z" fill="#E8E8ED"/>
</g>
<defs>
<clipPath id="clip0_1437_619">
<rect y="0.107178" width="27.2109" height="26.7857" rx="8" fill="white"/>
</clipPath>
</defs>
</svg>
