<svg width="29" height="24" viewBox="0 0 29 24" fill="none" xmlns="http://www.w3.org/2000/svg">
<path d="M4.9895 2.18864C5.36135 1.95494 5.85707 1.93675 6.25012 2.14239L23.4527 11.1424C23.7981 11.3231 24.0095 11.6486 24.0095 11.9999C24.0095 12.3511 23.7981 12.6766 23.4527 12.8573L6.25012 21.8573C5.85707 22.063 5.36135 22.0448 4.9895 21.8111C4.61766 21.5774 4.44111 21.1731 4.54054 20.7829L6.52408 12.9999L12.6879 12.9999C13.2402 12.9999 13.6879 12.5521 13.6879 11.9999C13.6879 11.4476 13.2402 10.9999 12.6879 10.9999H6.52408L4.54054 3.21681C4.44111 2.82665 4.61766 2.42233 4.9895 2.18864Z" fill="white"/>
</svg>
