<svg width="169" height="33" viewBox="0 0 169 33" fill="none" xmlns="http://www.w3.org/2000/svg">
<g filter="url(#filter0_d_1173_50409)">
<path d="M62.8805 16.281C62.8805 18.4813 62.5251 20.504 61.8145 22.349C61.1175 24.1803 60.1266 25.7657 58.842 27.105C57.5573 28.4307 56.0198 29.4625 54.2295 30.2005C52.4391 30.9385 50.4506 31.3075 48.264 31.3075C46.091 31.3075 44.1025 30.9385 42.2985 30.2005C40.5081 29.4625 38.9706 28.4307 37.686 27.105C36.415 25.7657 35.4241 24.1803 34.7135 22.349C34.0028 20.504 33.6475 18.4813 33.6475 16.281C33.6475 14.0943 34.0028 12.0785 34.7135 10.2335C35.4241 8.38851 36.415 6.80318 37.686 5.47751C38.9706 4.13818 40.5081 3.09951 42.2985 2.36151C44.1025 1.60984 46.091 1.23401 48.264 1.23401C50.4506 1.23401 52.4391 1.60984 54.2295 2.36151C56.0198 3.09951 57.5573 4.13818 58.842 5.47751C60.1266 6.80318 61.1175 8.38851 61.8145 10.2335C62.5251 12.0785 62.8805 14.0943 62.8805 16.281ZM58.4115 16.281C58.4115 14.5317 58.1723 12.96 57.694 11.566C57.2156 10.172 56.5323 8.98984 55.644 8.01951C54.7693 7.04918 53.7033 6.30434 52.446 5.78501C51.2023 5.26568 49.8083 5.00601 48.264 5.00601C46.7196 5.00601 45.3188 5.26568 44.0615 5.78501C42.8178 6.30434 41.7518 7.04918 40.8635 8.01951C39.9751 8.98984 39.2918 10.172 38.8135 11.566C38.3351 12.96 38.096 14.5317 38.096 16.281C38.096 18.044 38.3351 19.6225 38.8135 21.0165C39.2918 22.3968 39.9751 23.5722 40.8635 24.5425C41.7518 25.5128 42.8178 26.2577 44.0615 26.777C45.3188 27.2827 46.7196 27.5355 48.264 27.5355C49.8083 27.5355 51.2023 27.2827 52.446 26.777C53.7033 26.2577 54.7693 25.5128 55.644 24.5425C56.5323 23.5722 57.2156 22.3968 57.694 21.0165C58.1723 19.6225 58.4115 18.044 58.4115 16.281Z" fill="#F81DFB"/>
</g>
<g filter="url(#filter1_d_1173_50409)">
<path d="M160.093 20.0325L155.727 8.61401C155.412 7.83501 155.098 6.85101 154.784 5.66201C154.633 6.24968 154.476 6.79635 154.312 7.30201C154.162 7.80768 154.012 8.25868 153.861 8.65501L149.515 20.0325H160.093ZM168.724 31H165.362C164.979 31 164.665 30.9043 164.419 30.713C164.173 30.5217 163.995 30.2757 163.886 29.975L161.282 23.1485H148.306L145.702 29.975C145.607 30.2347 145.429 30.4738 145.169 30.6925C144.91 30.8975 144.595 31 144.226 31H140.864L152.59 1.56201H156.998L168.724 31Z" fill="#F81DFB"/>
</g>
<g filter="url(#filter2_d_1173_50409)">
<path d="M96.8391 5.10851V14.969H108.647V18.5155H96.8391V31H92.4521V1.56201H110.697V5.10851H96.8391Z" fill="#F81DFB"/>
</g>
<g filter="url(#filter3_d_1173_50409)">
<path d="M4.58621 9.63636V7.81818L6.74138 10.5455L24.8448 31H27V1.24759H24.2417V25.6878L21.3966 22.6231L2.86912 1H2V30.7524H5.01724L4.58621 9.63636Z" stroke="white" shape-rendering="crispEdges"/>
</g>
<g filter="url(#filter4_d_1173_50409)">
<path d="M69 2V31V30.7563H72.5V28.8067V18.2232H82.3947V15.3932M69 2V2.97468M69 2L87 2.00003V5.89917H72.5V15.3932H82.3947M82.3947 15.3932H79.7179" stroke="white" shape-rendering="crispEdges"/>
</g>
<g filter="url(#filter5_d_1173_50409)">
<path d="M115.323 4.5V5H115.823H127.15V30V30.5H127.65H129.996H130.496V30V5H141.823H142.323V4.5V2V1.5H141.823H115.823H115.323V2V4.5Z" stroke="white" shape-rendering="crispEdges"/>
</g>
<defs>
<filter id="filter0_d_1173_50409" x="32.6475" y="1.23401" width="30.2334" height="31.5735" filterUnits="userSpaceOnUse" color-interpolation-filters="sRGB">
<feFlood flood-opacity="0" result="BackgroundImageFix"/>
<feColorMatrix in="SourceAlpha" type="matrix" values="0 0 0 0 0 0 0 0 0 0 0 0 0 0 0 0 0 0 127 0" result="hardAlpha"/>
<feOffset dx="-1" dy="1.5"/>
<feComposite in2="hardAlpha" operator="out"/>
<feColorMatrix type="matrix" values="0 0 0 0 1 0 0 0 0 1 0 0 0 0 1 0 0 0 1 0"/>
<feBlend mode="normal" in2="BackgroundImageFix" result="effect1_dropShadow_1173_50409"/>
<feBlend mode="normal" in="SourceGraphic" in2="effect1_dropShadow_1173_50409" result="shape"/>
</filter>
<filter id="filter1_d_1173_50409" x="139.864" y="1.56201" width="28.8594" height="30.938" filterUnits="userSpaceOnUse" color-interpolation-filters="sRGB">
<feFlood flood-opacity="0" result="BackgroundImageFix"/>
<feColorMatrix in="SourceAlpha" type="matrix" values="0 0 0 0 0 0 0 0 0 0 0 0 0 0 0 0 0 0 127 0" result="hardAlpha"/>
<feOffset dx="-1" dy="1.5"/>
<feComposite in2="hardAlpha" operator="out"/>
<feColorMatrix type="matrix" values="0 0 0 0 1 0 0 0 0 1 0 0 0 0 1 0 0 0 1 0"/>
<feBlend mode="normal" in2="BackgroundImageFix" result="effect1_dropShadow_1173_50409"/>
<feBlend mode="normal" in="SourceGraphic" in2="effect1_dropShadow_1173_50409" result="shape"/>
</filter>
<filter id="filter2_d_1173_50409" x="91.4521" y="1.56201" width="19.2451" height="30.938" filterUnits="userSpaceOnUse" color-interpolation-filters="sRGB">
<feFlood flood-opacity="0" result="BackgroundImageFix"/>
<feColorMatrix in="SourceAlpha" type="matrix" values="0 0 0 0 0 0 0 0 0 0 0 0 0 0 0 0 0 0 127 0" result="hardAlpha"/>
<feOffset dx="-1" dy="1.5"/>
<feComposite in2="hardAlpha" operator="out"/>
<feColorMatrix type="matrix" values="0 0 0 0 1 0 0 0 0 1 0 0 0 0 1 0 0 0 1 0"/>
<feBlend mode="normal" in2="BackgroundImageFix" result="effect1_dropShadow_1173_50409"/>
<feBlend mode="normal" in="SourceGraphic" in2="effect1_dropShadow_1173_50409" result="shape"/>
</filter>
<filter id="filter3_d_1173_50409" x="0.5" y="0.5" width="27" height="32.5" filterUnits="userSpaceOnUse" color-interpolation-filters="sRGB">
<feFlood flood-opacity="0" result="BackgroundImageFix"/>
<feColorMatrix in="SourceAlpha" type="matrix" values="0 0 0 0 0 0 0 0 0 0 0 0 0 0 0 0 0 0 127 0" result="hardAlpha"/>
<feOffset dx="-1" dy="1.5"/>
<feComposite in2="hardAlpha" operator="out"/>
<feColorMatrix type="matrix" values="0 0 0 0 0.972549 0 0 0 0 0.113725 0 0 0 0 0.984314 0 0 0 1 0"/>
<feBlend mode="normal" in2="BackgroundImageFix" result="effect1_dropShadow_1173_50409"/>
<feBlend mode="normal" in="SourceGraphic" in2="effect1_dropShadow_1173_50409" result="shape"/>
</filter>
<filter id="filter4_d_1173_50409" x="67.5" y="1.5" width="20" height="31.2563" filterUnits="userSpaceOnUse" color-interpolation-filters="sRGB">
<feFlood flood-opacity="0" result="BackgroundImageFix"/>
<feColorMatrix in="SourceAlpha" type="matrix" values="0 0 0 0 0 0 0 0 0 0 0 0 0 0 0 0 0 0 127 0" result="hardAlpha"/>
<feOffset dx="-1" dy="1.5"/>
<feComposite in2="hardAlpha" operator="out"/>
<feColorMatrix type="matrix" values="0 0 0 0 0.972549 0 0 0 0 0.113725 0 0 0 0 0.984314 0 0 0 1 0"/>
<feBlend mode="normal" in2="BackgroundImageFix" result="effect1_dropShadow_1173_50409"/>
<feBlend mode="normal" in="SourceGraphic" in2="effect1_dropShadow_1173_50409" result="shape"/>
</filter>
<filter id="filter5_d_1173_50409" x="113.823" y="1" width="29" height="31.5" filterUnits="userSpaceOnUse" color-interpolation-filters="sRGB">
<feFlood flood-opacity="0" result="BackgroundImageFix"/>
<feColorMatrix in="SourceAlpha" type="matrix" values="0 0 0 0 0 0 0 0 0 0 0 0 0 0 0 0 0 0 127 0" result="hardAlpha"/>
<feOffset dx="-1" dy="1.5"/>
<feComposite in2="hardAlpha" operator="out"/>
<feColorMatrix type="matrix" values="0 0 0 0 0.972549 0 0 0 0 0.113725 0 0 0 0 0.984314 0 0 0 1 0"/>
<feBlend mode="normal" in2="BackgroundImageFix" result="effect1_dropShadow_1173_50409"/>
<feBlend mode="normal" in="SourceGraphic" in2="effect1_dropShadow_1173_50409" result="shape"/>
</filter>
</defs>
</svg>
