<svg width="483" height="112" viewBox="0 0 483 112" fill="none" xmlns="http://www.w3.org/2000/svg">
<g filter="url(#filter0_f_224_13991)">
<path d="M58.0449 80.502L56.2126 79.7003L56.2073 79.7124L56.2022 79.7245L58.0449 80.502ZM48.8652 89.6816L49.6426 91.5244L49.6496 91.5214L49.6565 91.5185L48.8652 89.6816ZM20.0078 91H18.0078V93H20.0078V91ZM20.0078 20.9805V18.9805H18.0078V20.9805H20.0078ZM48.8652 22.3477L48.0636 24.18L48.0807 24.1875L48.098 24.1946L48.8652 22.3477ZM58.0449 31.5273L56.1979 32.2946L56.2051 32.3118L56.2126 32.329L58.0449 31.5273ZM58.7285 43.6855L56.8117 43.1146L56.8077 43.1281L56.8039 43.1416L58.7285 43.6855ZM53.9922 51.4492L55.3629 52.9056L55.3741 52.8951L55.3851 52.8844L53.9922 51.4492ZM50.2812 54.0859L49.3532 52.3143L45.971 54.0859L49.3532 55.8576L50.2812 54.0859ZM53.9922 56.7715L52.5992 58.2066L52.6103 58.2174L52.6215 58.2279L53.9922 56.7715ZM56.873 60.3359L55.1655 61.3772L55.1712 61.3866L55.1771 61.3959L56.873 60.3359ZM58.7285 64.584L56.8009 65.1172L56.8077 65.1418L56.8152 65.1663L58.7285 64.584ZM52.2344 63.9492L50.3961 64.7371L50.3996 64.7451L50.4031 64.7532L52.2344 63.9492ZM49.793 60.3848L48.3788 61.799L48.39 61.8102L48.4014 61.8212L49.793 60.3848ZM46.2285 57.9922L45.4245 59.8235L45.4326 59.827L45.4407 59.8305L46.2285 57.9922ZM26.3066 57.1133V55.1133H24.3066V57.1133H26.3066ZM26.3066 84.9941H24.3066V86.9941H26.3066V84.9941ZM46.2285 84.1152L45.4407 82.2769L45.4326 82.2804L45.4245 82.2839L46.2285 84.1152ZM49.793 81.7227L48.4014 80.2862L48.39 80.2972L48.3788 80.3084L49.793 81.7227ZM52.2344 78.207L54.0657 79.011L54.0692 79.003L54.0727 78.9949L52.2344 78.207ZM52.2344 33.8711L50.3961 34.6589L50.3996 34.667L50.4031 34.6751L52.2344 33.8711ZM49.793 30.3066L48.3565 31.6982L48.3786 31.721L48.4014 31.7431L49.793 30.3066ZM46.2285 27.8652L45.4245 29.6965L45.4326 29.7001L45.4407 29.7035L46.2285 27.8652ZM26.3066 26.9863V24.9863H24.3066V26.9863H26.3066ZM26.3066 51.1074H24.3066V53.1074H26.3066V51.1074ZM46.2285 50.2285L45.4407 48.3902L45.4326 48.3937L45.4245 48.3972L46.2285 50.2285ZM52.2344 44.2715L54.0657 45.0755L54.0692 45.0674L54.0727 45.0593L52.2344 44.2715ZM57.4121 73.8125C57.4121 75.9256 57.0085 77.8811 56.2126 79.7003L59.8772 81.3036C60.9043 78.9561 61.4121 76.452 61.4121 73.8125H57.4121ZM56.2022 79.7245C55.4213 81.5756 54.3442 83.1809 52.9686 84.5565L55.797 87.3849C57.5464 85.6355 58.9108 83.595 59.8876 81.2794L56.2022 79.7245ZM52.9686 84.5565C51.5927 85.9324 49.9674 87.0292 48.074 87.8448L49.6565 91.5185C51.9948 90.5112 54.0479 89.134 55.797 87.3849L52.9686 84.5565ZM48.0878 87.8389C46.263 88.6088 44.2989 89 42.1758 89V93C44.8053 93 47.3008 92.5123 49.6426 91.5244L48.0878 87.8389ZM42.1758 89H20.0078V93H42.1758V89ZM22.0078 91V20.9805H18.0078V91H22.0078ZM20.0078 22.9805H42.1758V18.9805H20.0078V22.9805ZM42.1758 22.9805C44.2888 22.9805 46.2444 23.3841 48.0636 24.18L49.6669 20.5153C47.3194 19.4883 44.8153 18.9805 42.1758 18.9805V22.9805ZM48.098 24.1946C49.9811 24.9768 51.5982 26.0536 52.9686 27.424L55.797 24.5956C54.0424 22.841 51.9812 21.4763 49.6324 20.5007L48.098 24.1946ZM52.9686 27.424C54.339 28.7944 55.4157 30.4115 56.1979 32.2946L59.8919 30.7601C58.9163 28.4114 57.5516 26.3501 55.797 24.5956L52.9686 27.424ZM56.2126 32.329C57.0085 34.1482 57.4121 36.1037 57.4121 38.2168H61.4121C61.4121 35.5773 60.9043 33.0732 59.8772 30.7257L56.2126 32.329ZM57.4121 38.2168V38.9004H61.4121V38.2168H57.4121ZM57.4121 38.9004C57.4121 40.375 57.2101 41.7772 56.8117 43.1146L60.6453 44.2565C61.1584 42.534 61.4121 40.7461 61.4121 38.9004H57.4121ZM56.8039 43.1416C56.4314 44.4595 55.8893 45.6852 55.1771 46.8248L58.569 48.9448C59.4844 47.4802 60.1792 45.9064 60.6531 44.2295L56.8039 43.1416ZM55.1771 46.8248C54.4491 47.9894 53.5908 49.0517 52.5992 50.0141L55.3851 52.8844C56.6072 51.6983 57.6693 50.3843 58.569 48.9448L55.1771 46.8248ZM52.6215 49.9928C51.6493 50.9078 50.5617 51.6813 49.3532 52.3143L51.2093 55.8576C52.7352 55.0583 54.1216 54.074 55.3629 52.9056L52.6215 49.9928ZM49.3532 55.8576C50.5502 56.4846 51.6306 57.2665 52.5992 58.2066L55.3851 55.3363C54.1403 54.1281 52.7467 53.1196 51.2093 52.3143L49.3532 55.8576ZM52.6215 58.2279C53.5942 59.1434 54.4422 60.191 55.1655 61.3772L58.5806 59.2947C57.6763 57.8116 56.6037 56.4829 55.3629 55.3151L52.6215 58.2279ZM55.1771 61.3959C55.8852 62.529 56.4274 63.7667 56.8009 65.1172L60.6561 64.0508C60.1833 62.3413 59.4885 60.747 58.569 59.2759L55.1771 61.3959ZM56.8152 65.1663C57.2101 66.4638 57.4121 67.8455 57.4121 69.3203H61.4121C61.4121 67.4748 61.1584 65.699 60.6419 64.0017L56.8152 65.1663ZM57.4121 69.3203V73.8125H61.4121V69.3203H57.4121ZM55.1133 68.2949C55.1133 66.4758 54.7707 64.7512 54.0657 63.1452L50.4031 64.7532C50.8699 65.8165 51.1133 66.989 51.1133 68.2949H55.1133ZM54.0727 63.1614C53.385 61.5569 52.4216 60.1466 51.1846 58.9483L48.4014 61.8212C49.2477 62.6411 49.9118 63.6072 50.3961 64.7371L54.0727 63.1614ZM51.2072 58.9706C50.0106 57.7739 48.6073 56.8358 47.0164 56.1539L45.4407 59.8305C46.5841 60.3205 47.5571 60.9774 48.3788 61.799L51.2072 58.9706ZM47.0325 56.1609C45.4266 55.4559 43.7019 55.1133 41.8828 55.1133V59.1133C43.1887 59.1133 44.3612 59.3566 45.4245 59.8235L47.0325 56.1609ZM41.8828 55.1133H26.3066V59.1133H41.8828V55.1133ZM24.3066 57.1133V84.9941H28.3066V57.1133H24.3066ZM26.3066 86.9941H41.8828V82.9941H26.3066V86.9941ZM41.8828 86.9941C43.7019 86.9941 45.4266 86.6516 47.0325 85.9465L45.4245 82.2839C44.3612 82.7508 43.1887 82.9941 41.8828 82.9941V86.9941ZM47.0164 85.9535C48.6073 85.2717 50.0106 84.3335 51.2072 83.1369L48.3788 80.3084C47.5571 81.1301 46.5841 81.7869 45.4407 82.2769L47.0164 85.9535ZM51.1846 83.1591C52.4134 81.9687 53.3761 80.5818 54.0657 79.011L50.4031 77.4031C49.9208 78.5016 49.2559 79.4583 48.4014 80.2862L51.1846 83.1591ZM54.0727 78.9949C54.7706 77.3662 55.1133 75.6319 55.1133 73.8125H51.1133C51.1133 75.1181 50.87 76.3134 50.3961 77.4192L54.0727 78.9949ZM55.1133 73.8125V68.2949H51.1133V73.8125H55.1133ZM55.1133 38.2168C55.1133 36.3977 54.7707 34.673 54.0657 33.0671L50.4031 34.6751C50.8699 35.7384 51.1133 36.9109 51.1133 38.2168H55.1133ZM54.0727 33.0833C53.385 31.4788 52.4216 30.0685 51.1846 28.8702L48.4014 31.7431C49.2477 32.563 49.9118 33.529 50.3961 34.6589L54.0727 33.0833ZM51.2295 28.9151C50.0311 27.678 48.6208 26.7146 47.0164 26.0269L45.4407 29.7035C46.5706 30.1878 47.5366 30.8519 48.3565 31.6982L51.2295 28.9151ZM47.0325 26.0339C45.4266 25.3289 43.7019 24.9863 41.8828 24.9863V28.9863C43.1887 28.9863 44.3612 29.2297 45.4245 29.6965L47.0325 26.0339ZM41.8828 24.9863H26.3066V28.9863H41.8828V24.9863ZM24.3066 26.9863V51.1074H28.3066V26.9863H24.3066ZM26.3066 53.1074H41.8828V49.1074H26.3066V53.1074ZM41.8828 53.1074C43.7019 53.1074 45.4266 52.7649 47.0325 52.0598L45.4245 48.3972C44.3612 48.8641 43.1887 49.1074 41.8828 49.1074V53.1074ZM47.0164 52.0668C48.6073 51.3849 50.0106 50.4468 51.2072 49.2502L48.3788 46.4217C47.5571 47.2433 46.5841 47.9002 45.4407 48.3902L47.0164 52.0668ZM51.2072 49.2502C52.4227 48.0347 53.3787 46.6401 54.0657 45.0755L50.4031 43.4675C49.9181 44.5721 49.2466 45.5539 48.3788 46.4217L51.2072 49.2502ZM54.0727 45.0593C54.7706 43.4307 55.1133 41.6964 55.1133 39.877H51.1133C51.1133 41.1825 50.87 42.3779 50.3961 43.4836L54.0727 45.0593ZM55.1133 39.877V38.2168H51.1133V39.877H55.1133ZM97.7422 74.6914L99.6659 74.1442L99.2527 72.6914H97.7422V74.6914ZM75.5742 74.6914V72.6914H74.0594L73.649 74.1496L75.5742 74.6914ZM70.9844 91V93H72.4992L72.9096 91.5418L70.9844 91ZM64.4414 91L62.522 90.4378L61.7716 93H64.4414V91ZM84.9492 20.9805V18.9805H83.451L83.0298 20.4183L84.9492 20.9805ZM88.2695 20.9805L90.1882 20.4158L89.7658 18.9805H88.2695V20.9805ZM108.875 91V93H111.548L110.794 90.4354L108.875 91ZM102.381 91L100.457 91.5472L100.87 93H102.381V91ZM77.2832 68.6855L75.3595 68.1384L74.635 70.6855H77.2832V68.6855ZM96.082 68.6855V70.6855H98.734L98.005 68.1357L96.082 68.6855ZM86.8535 36.4102L84.8592 36.5607L84.8745 36.764L84.9306 36.96L86.8535 36.4102ZM86.6582 33.8223L88.6525 33.6717H84.6639L86.6582 33.8223ZM86.4629 36.4102L88.3866 36.9573L88.442 36.7626L88.4572 36.5607L86.4629 36.4102ZM97.7422 72.6914H75.5742V76.6914H97.7422V72.6914ZM73.649 74.1496L69.0592 90.4582L72.9096 91.5418L77.4994 75.2332L73.649 74.1496ZM70.9844 89H64.4414V93H70.9844V89ZM66.3608 91.5622L86.8686 21.5426L83.0298 20.4183L62.522 90.4378L66.3608 91.5622ZM84.9492 22.9805H88.2695V18.9805H84.9492V22.9805ZM86.3509 21.5451L106.956 91.5646L110.794 90.4354L90.1882 20.4158L86.3509 21.5451ZM108.875 89H102.381V93H108.875V89ZM104.305 90.4528L99.6659 74.1442L95.8185 75.2386L100.457 91.5472L104.305 90.4528ZM77.2832 70.6855H96.082V66.6855H77.2832V70.6855ZM98.005 68.1357L88.7765 35.8603L84.9306 36.96L94.1591 69.2354L98.005 68.1357ZM88.8478 36.2596L88.6525 33.6717L84.6639 33.9728L84.8592 36.5607L88.8478 36.2596ZM84.6639 33.6717L84.4686 36.2596L88.4572 36.5607L88.6525 33.9728L84.6639 33.6717ZM84.5392 35.863L75.3595 68.1384L79.2069 69.2327L88.3866 36.9573L84.5392 35.863ZM150.77 91L149.082 92.0729L149.671 93H150.77V91ZM131.775 61.1172L133.463 60.0443L132.874 59.1172H131.775V61.1172ZM123.133 61.1172V59.1172H121.133V61.1172H123.133ZM123.133 91V93H125.133V91H123.133ZM116.834 91H114.834V93H116.834V91ZM116.834 20.9805V18.9805H114.834V20.9805H116.834ZM145.74 22.3477L144.939 24.18L144.951 24.1853L144.963 24.1904L145.74 22.3477ZM154.871 31.5273L153.024 32.2946L153.031 32.3118L153.039 32.329L154.871 31.5273ZM154.871 50.6191L153.034 49.8279L153.031 49.8348L153.028 49.8417L154.871 50.6191ZM145.74 59.7988L146.518 61.6416L146.53 61.6364L146.542 61.6311L145.74 59.7988ZM139.051 61.1172V59.1172H135.41L137.363 62.19L139.051 61.1172ZM158.045 91V93H161.686L159.733 89.9271L158.045 91ZM149.061 33.8711L147.222 34.6589L147.226 34.667L147.229 34.6751L149.061 33.8711ZM146.668 30.3066L145.231 31.6982L145.243 31.7096L145.254 31.7209L146.668 30.3066ZM143.104 27.8652L142.3 29.6965L142.308 29.7001L142.316 29.7035L143.104 27.8652ZM123.133 26.9863V24.9863H121.133V26.9863H123.133ZM123.133 55.1113H121.133V57.1113H123.133V55.1113ZM143.104 54.2324L142.316 52.3941L142.308 52.3976L142.3 52.4011L143.104 54.2324ZM146.668 51.8398L148.082 53.2541L148.093 53.2428L148.104 53.2314L146.668 51.8398ZM149.061 48.2754L150.892 49.0794L150.895 49.0713L150.899 49.0632L149.061 48.2754ZM152.457 89.9271L133.463 60.0443L130.088 62.19L149.082 92.0729L152.457 89.9271ZM131.775 59.1172H123.133V63.1172H131.775V59.1172ZM121.133 61.1172V91H125.133V61.1172H121.133ZM123.133 89H116.834V93H123.133V89ZM118.834 91V20.9805H114.834V91H118.834ZM116.834 22.9805H139.051V18.9805H116.834V22.9805ZM139.051 22.9805C141.164 22.9805 143.119 23.3841 144.939 24.18L146.542 20.5153C144.194 19.4883 141.69 18.9805 139.051 18.9805V22.9805ZM144.963 24.1904C146.814 24.9713 148.419 26.0484 149.795 27.424L152.623 24.5956C150.874 22.8461 148.833 21.4818 146.518 20.5049L144.963 24.1904ZM149.795 27.424C151.165 28.7944 152.242 30.4115 153.024 32.2946L156.718 30.7601C155.742 28.4114 154.378 26.3501 152.623 24.5956L149.795 27.424ZM153.039 32.329C153.835 34.1482 154.238 36.1037 154.238 38.2168H158.238C158.238 35.5773 157.73 33.0732 156.703 30.7257L153.039 32.329ZM154.238 38.2168V43.8809H158.238V38.2168H154.238ZM154.238 43.8809C154.238 45.9938 153.835 47.9698 153.034 49.8279L156.708 51.4104C157.73 49.0367 158.238 46.5205 158.238 43.8809H154.238ZM153.028 49.8417C152.247 51.6928 151.17 53.2981 149.795 54.6737L152.623 57.5021C154.373 55.7527 155.737 53.7122 156.714 51.3965L153.028 49.8417ZM149.795 54.6737C148.414 56.0547 146.8 57.152 144.939 57.9665L146.542 61.6311C148.847 60.6227 150.879 59.2461 152.623 57.5021L149.795 54.6737ZM144.963 57.9561C143.138 58.726 141.174 59.1172 139.051 59.1172V63.1172C141.68 63.1172 144.176 62.6295 146.518 61.6416L144.963 57.9561ZM137.363 62.19L156.357 92.0729L159.733 89.9271L140.739 60.0443L137.363 62.19ZM158.045 89H150.77V93H158.045V89ZM151.939 38.2168C151.939 36.3977 151.597 34.673 150.892 33.0671L147.229 34.6751C147.696 35.7384 147.939 36.9109 147.939 38.2168H151.939ZM150.899 33.0833C150.217 31.4923 149.279 30.089 148.082 28.8924L145.254 31.7209C146.075 32.5425 146.732 33.5156 147.222 34.6589L150.899 33.0833ZM148.104 28.9151C146.906 27.678 145.496 26.7146 143.891 26.0269L142.316 29.7035C143.446 30.1878 144.412 30.8519 145.231 31.6982L148.104 28.9151ZM143.908 26.0339C142.302 25.3289 140.577 24.9863 138.758 24.9863V28.9863C140.064 28.9863 141.236 29.2297 142.3 29.6965L143.908 26.0339ZM138.758 24.9863H123.133V28.9863H138.758V24.9863ZM121.133 26.9863V55.1113H125.133V26.9863H121.133ZM123.133 57.1113H138.758V53.1113H123.133V57.1113ZM138.758 57.1113C140.577 57.1113 142.302 56.7688 143.908 56.0637L142.3 52.4011C141.236 52.868 140.064 53.1113 138.758 53.1113V57.1113ZM143.891 56.0707C145.482 55.3889 146.886 54.4507 148.082 53.2541L145.254 50.4256C144.432 51.2472 143.459 51.9041 142.316 52.3941L143.891 56.0707ZM148.104 53.2314C149.28 52.0181 150.211 50.6307 150.892 49.0794L147.229 47.4714C146.738 48.5894 146.074 49.5783 145.231 50.4483L148.104 53.2314ZM150.899 49.0632C151.597 47.4346 151.939 45.7003 151.939 43.8809H147.939C147.939 45.1864 147.696 46.3818 147.222 47.4876L150.899 49.0632ZM151.939 43.8809V38.2168H147.939V43.8809H151.939ZM207.117 81.4785L205.285 80.6769L205.28 80.689L205.274 80.7011L207.117 81.4785ZM197.986 90.6582L198.764 92.5009L198.776 92.4958L198.788 92.4905L197.986 90.6582ZM179.578 90.6582L178.776 92.4905L178.794 92.498L178.811 92.5052L179.578 90.6582ZM170.398 81.4785L168.556 82.2559L168.561 82.2681L168.566 82.2802L170.398 81.4785ZM170.398 30.502L168.566 29.7003L168.561 29.7124L168.556 29.7246L170.398 30.502ZM179.578 21.3711L180.356 23.2138L180.362 23.2109L180.369 23.2079L179.578 21.3711ZM197.986 21.3711L197.185 23.2034L197.197 23.2087L197.209 23.2138L197.986 21.3711ZM207.117 30.502L205.274 31.2794L205.28 31.2915L205.285 31.3036L207.117 30.502ZM208.484 40.0234L208.791 41.9998L210.484 41.7373V40.0234H208.484ZM202.186 41H200.186V43.334L202.492 42.9764L202.186 41ZM201.307 32.8457L199.468 33.6335L199.472 33.6416L199.475 33.6497L201.307 32.8457ZM195.35 26.8887L194.546 28.72L194.554 28.7235L194.562 28.727L195.35 26.8887ZM182.215 26.8887L181.427 25.0504L181.419 25.0538L181.411 25.0574L182.215 26.8887ZM178.65 29.2812L177.259 27.8448L177.247 27.8558L177.236 27.867L178.65 29.2812ZM176.258 32.8457L178.089 33.6497L178.093 33.6416L178.096 33.6335L176.258 32.8457ZM176.258 79.1836L174.42 79.9714L174.423 79.9795L174.427 79.9876L176.258 79.1836ZM178.65 82.748L177.214 84.1396L177.236 84.1624L177.259 84.1845L178.65 82.748ZM182.215 85.1406L181.411 86.9719L181.419 86.9754L181.427 86.9789L182.215 85.1406ZM195.35 85.1406L194.562 83.3023L194.554 83.3058L194.546 83.3093L195.35 85.1406ZM198.914 82.748L200.328 84.1623L200.339 84.151L200.351 84.1396L198.914 82.748ZM201.307 79.1836L203.138 79.9876L203.141 79.9795L203.145 79.9714L201.307 79.1836ZM202.186 70.9805L202.507 69.0065L200.186 68.6286V70.9805H202.186ZM208.484 72.0059H210.484V70.3051L208.806 70.0318L208.484 72.0059ZM206.484 74.7891C206.484 76.9021 206.081 78.8577 205.285 80.6769L208.95 82.2802C209.977 79.9327 210.484 77.4286 210.484 74.7891H206.484ZM205.274 80.7011C204.494 82.5522 203.416 84.1575 202.041 85.5331L204.869 88.3615C206.619 86.6121 207.983 84.5715 208.96 82.2559L205.274 80.7011ZM202.041 85.5331C200.66 86.9141 199.046 88.0114 197.185 88.8259L198.788 92.4905C201.093 91.4821 203.125 90.1055 204.869 88.3615L202.041 85.5331ZM197.209 88.8155C195.384 89.5853 193.42 89.9766 191.297 89.9766V93.9766C193.926 93.9766 196.422 93.4889 198.764 92.5009L197.209 88.8155ZM191.297 89.9766H186.316V93.9766H191.297V89.9766ZM186.316 89.9766C184.193 89.9766 182.209 89.5854 180.345 88.8112L178.811 92.5052C181.179 93.4889 183.687 93.9766 186.316 93.9766V89.9766ZM180.38 88.8259C178.518 88.0114 176.905 86.9141 175.524 85.5331L172.695 88.3615C174.439 90.1055 176.471 91.4821 178.776 92.4905L180.38 88.8259ZM175.524 85.5331C174.143 84.152 173.045 82.5385 172.231 80.6769L168.566 82.2802C169.575 84.5852 170.951 86.6175 172.695 88.3615L175.524 85.5331ZM172.241 80.7011C171.471 78.8763 171.08 76.9122 171.08 74.7891H167.08C167.08 77.4186 167.568 79.9141 168.556 82.2559L172.241 80.7011ZM171.08 74.7891V37.1914H167.08V74.7891H171.08ZM171.08 37.1914C171.08 35.0683 171.471 33.1042 172.241 31.2794L168.556 29.7246C167.568 32.0664 167.08 34.5619 167.08 37.1914H171.08ZM172.231 31.3036C173.045 29.442 174.143 27.8284 175.524 26.4474L172.695 23.619C170.951 25.363 169.575 27.3953 168.566 29.7003L172.231 31.3036ZM175.524 26.4474C176.899 25.0718 178.504 23.9947 180.356 23.2138L178.801 19.5284C176.485 20.5053 174.445 21.8696 172.695 23.619L175.524 26.4474ZM180.369 23.2079C182.227 22.4075 184.203 22.0039 186.316 22.0039V18.0039C183.677 18.0039 181.161 18.5117 178.787 19.5343L180.369 23.2079ZM186.316 22.0039H191.297V18.0039H186.316V22.0039ZM191.297 22.0039C193.41 22.0039 195.366 22.4075 197.185 23.2034L198.788 19.5388C196.44 18.5118 193.936 18.0039 191.297 18.0039V22.0039ZM197.209 23.2138C199.06 23.9947 200.665 25.0718 202.041 26.4474L204.869 23.619C203.12 21.8696 201.079 20.5053 198.764 19.5284L197.209 23.2138ZM202.041 26.4474C203.416 27.823 204.494 29.4283 205.274 31.2794L208.96 29.7246C207.983 27.4089 206.619 25.3684 204.869 23.619L202.041 26.4474ZM205.285 31.3036C206.081 33.1228 206.484 35.0783 206.484 37.1914H210.484C210.484 34.5519 209.977 32.0478 208.95 29.7003L205.285 31.3036ZM206.484 37.1914V40.0234H210.484V37.1914H206.484ZM208.178 38.0471L201.879 39.0236L202.492 42.9764L208.791 41.9998L208.178 38.0471ZM204.186 41V37.1914H200.186V41H204.186ZM204.186 37.1914C204.186 35.3723 203.843 33.6477 203.138 32.0417L199.475 33.6497C199.942 34.713 200.186 35.8855 200.186 37.1914H204.186ZM203.145 32.0579C202.463 30.4669 201.525 29.0636 200.328 27.867L197.5 30.6955C198.321 31.5171 198.978 32.4902 199.468 33.6335L203.145 32.0579ZM200.328 27.867C199.132 26.6704 197.728 25.7322 196.137 25.0504L194.562 28.727C195.705 29.217 196.678 29.8738 197.5 30.6955L200.328 27.867ZM196.154 25.0574C194.548 24.3523 192.823 24.0098 191.004 24.0098V28.0098C192.31 28.0098 193.482 28.2531 194.546 28.72L196.154 25.0574ZM191.004 24.0098H186.609V28.0098H191.004V24.0098ZM186.609 24.0098C184.79 24.0098 183.056 24.3524 181.427 25.0504L183.003 28.727C184.108 28.2531 185.304 28.0098 186.609 28.0098V24.0098ZM181.411 25.0574C179.86 25.7384 178.472 26.6693 177.259 27.8448L180.042 30.7177C180.912 29.875 181.901 29.2108 183.019 28.72L181.411 25.0574ZM177.236 27.867C176.04 29.0636 175.101 30.4669 174.42 32.0579L178.096 33.6335C178.586 32.4902 179.243 31.5171 180.065 30.6955L177.236 27.867ZM174.427 32.0417C173.721 33.6477 173.379 35.3723 173.379 37.1914H177.379C177.379 35.8855 177.622 34.713 178.089 33.6497L174.427 32.0417ZM173.379 37.1914V74.7891H177.379V37.1914H173.379ZM173.379 74.7891C173.379 76.6085 173.722 78.3428 174.42 79.9714L178.096 78.3958C177.622 77.29 177.379 76.0946 177.379 74.7891H173.379ZM174.427 79.9876C175.108 81.5389 176.038 82.9263 177.214 84.1396L180.087 81.3565C179.244 80.4865 178.58 79.4976 178.089 78.3796L174.427 79.9876ZM177.259 84.1845C178.472 85.36 179.86 86.2909 181.411 86.9719L183.019 83.3093C181.901 82.8185 180.912 82.1543 180.042 81.3116L177.259 84.1845ZM181.427 86.9789C183.056 87.6769 184.79 88.0195 186.609 88.0195V84.0195C185.304 84.0195 184.108 83.7762 183.003 83.3023L181.427 86.9789ZM186.609 88.0195H191.004V84.0195H186.609V88.0195ZM191.004 88.0195C192.823 88.0195 194.548 87.677 196.154 86.9719L194.546 83.3093C193.482 83.7762 192.31 84.0195 191.004 84.0195V88.0195ZM196.137 86.9789C197.728 86.2971 199.132 85.3589 200.328 84.1623L197.5 81.3338C196.678 82.1555 195.705 82.8123 194.562 83.3023L196.137 86.9789ZM200.351 84.1396C201.526 82.9263 202.457 81.5389 203.138 79.9876L199.475 78.3796C198.985 79.4976 198.32 80.4865 197.478 81.3565L200.351 84.1396ZM203.145 79.9714C203.843 78.3428 204.186 76.6085 204.186 74.7891H200.186C200.186 76.0946 199.942 77.29 199.468 78.3958L203.145 79.9714ZM204.186 74.7891V70.9805H200.186V74.7891H204.186ZM201.864 72.9545L208.163 73.9799L208.806 70.0318L202.507 69.0065L201.864 72.9545ZM206.484 72.0059V74.7891H210.484V72.0059H206.484ZM222.547 91H220.547V93H222.547V91ZM222.547 20.9805V18.9805H220.547V20.9805H222.547ZM261.951 20.9805H263.951V18.9805H261.951V20.9805ZM261.951 26.9863V28.9863H263.951V26.9863H261.951ZM228.846 26.9863V24.9863H226.846V26.9863H228.846ZM228.846 53.0117H226.846V55.0117H228.846V53.0117ZM255.652 53.0117H257.652V51.0117H255.652V53.0117ZM255.652 59.0176V61.0176H257.652V59.0176H255.652ZM228.846 59.0176V57.0176H226.846V59.0176H228.846ZM228.846 84.9941H226.846V86.9941H228.846V84.9941ZM261.951 84.9941H263.951V82.9941H261.951V84.9941ZM261.951 91V93H263.951V91H261.951ZM224.547 91V20.9805H220.547V91H224.547ZM222.547 22.9805H261.951V18.9805H222.547V22.9805ZM259.951 20.9805V26.9863H263.951V20.9805H259.951ZM261.951 24.9863H228.846V28.9863H261.951V24.9863ZM226.846 26.9863V53.0117H230.846V26.9863H226.846ZM228.846 55.0117H255.652V51.0117H228.846V55.0117ZM253.652 53.0117V59.0176H257.652V53.0117H253.652ZM255.652 57.0176H228.846V61.0176H255.652V57.0176ZM226.846 59.0176V84.9941H230.846V59.0176H226.846ZM228.846 86.9941H261.951V82.9941H228.846V86.9941ZM259.951 84.9941V91H263.951V84.9941H259.951ZM261.951 89H222.547V93H261.951V89ZM272.986 91H270.986V93H272.986V91ZM272.986 20.9805V18.9805H270.986V20.9805H272.986ZM279.285 20.9805H281.285V18.9805H279.285V20.9805ZM279.285 84.9941H277.285V86.9941H279.285V84.9941ZM306.092 84.9941H308.092V82.9941H306.092V84.9941ZM306.092 91V93H308.092V91H306.092ZM274.986 91V20.9805H270.986V91H274.986ZM272.986 22.9805H279.285V18.9805H272.986V22.9805ZM277.285 20.9805V84.9941H281.285V20.9805H277.285ZM279.285 86.9941H306.092V82.9941H279.285V86.9941ZM304.092 84.9941V91H308.092V84.9941H304.092ZM306.092 89H272.986V93H306.092V89ZM353.113 81.4785L351.281 80.6769L351.276 80.689L351.271 80.7011L353.113 81.4785ZM343.982 90.6582L344.76 92.5009L344.772 92.4958L344.784 92.4905L343.982 90.6582ZM325.574 90.6582L324.773 92.4905L324.79 92.498L324.807 92.5052L325.574 90.6582ZM316.395 81.4785L314.552 82.2559L314.557 82.2681L314.562 82.2802L316.395 81.4785ZM316.395 30.502L314.562 29.7003L314.557 29.7124L314.552 29.7246L316.395 30.502ZM325.574 21.3711L326.352 23.2138L326.359 23.2109L326.365 23.2079L325.574 21.3711ZM343.982 21.3711L343.181 23.2034L343.193 23.2087L343.205 23.2138L343.982 21.3711ZM353.113 30.502L351.271 31.2794L351.276 31.2915L351.281 31.3036L353.113 30.502ZM347.303 32.8457L345.464 33.6335L345.468 33.6416L345.471 33.6497L347.303 32.8457ZM341.346 26.8887L340.542 28.72L340.55 28.7235L340.558 28.727L341.346 26.8887ZM328.211 26.8887L327.423 25.0504L327.415 25.0538L327.407 25.0574L328.211 26.8887ZM324.646 29.2812L323.255 27.8448L323.243 27.8558L323.232 27.867L324.646 29.2812ZM322.254 32.8457L324.085 33.6497L324.089 33.6416L324.092 33.6335L322.254 32.8457ZM322.254 79.1836L320.416 79.9714L320.419 79.9795L320.423 79.9876L322.254 79.1836ZM324.646 82.748L323.21 84.1396L323.232 84.1624L323.255 84.1845L324.646 82.748ZM328.211 85.1406L327.407 86.9719L327.415 86.9754L327.423 86.9789L328.211 85.1406ZM341.346 85.1406L340.558 83.3023L340.55 83.3058L340.542 83.3093L341.346 85.1406ZM344.91 82.748L346.324 84.1623L346.336 84.151L346.347 84.1396L344.91 82.748ZM347.303 79.1836L349.134 79.9876L349.138 79.9795L349.141 79.9714L347.303 79.1836ZM352.48 74.7891C352.48 76.9021 352.077 78.8577 351.281 80.6769L354.946 82.2802C355.973 79.9327 356.48 77.4286 356.48 74.7891H352.48ZM351.271 80.7011C350.49 82.5522 349.413 84.1575 348.037 85.5331L350.865 88.3615C352.615 86.6121 353.979 84.5715 354.956 82.2559L351.271 80.7011ZM348.037 85.5331C346.656 86.9141 345.042 88.0114 343.181 88.8259L344.784 92.4905C347.089 91.4821 349.121 90.1055 350.865 88.3615L348.037 85.5331ZM343.205 88.8155C341.38 89.5853 339.416 89.9766 337.293 89.9766V93.9766C339.922 93.9766 342.418 93.4889 344.76 92.5009L343.205 88.8155ZM337.293 89.9766H332.312V93.9766H337.293V89.9766ZM332.312 89.9766C330.19 89.9766 328.205 89.5854 326.341 88.8112L324.807 92.5052C327.175 93.4889 329.683 93.9766 332.312 93.9766V89.9766ZM326.376 88.8259C324.514 88.0114 322.901 86.9141 321.52 85.5331L318.691 88.3615C320.435 90.1055 322.468 91.4821 324.773 92.4905L326.376 88.8259ZM321.52 85.5331C320.139 84.152 319.041 82.5385 318.227 80.6769L314.562 82.2802C315.571 84.5852 316.947 86.6175 318.691 88.3615L321.52 85.5331ZM318.237 80.7011C317.467 78.8763 317.076 76.9122 317.076 74.7891H313.076C313.076 77.4186 313.564 79.9141 314.552 82.2559L318.237 80.7011ZM317.076 74.7891V37.1914H313.076V74.7891H317.076ZM317.076 37.1914C317.076 35.0683 317.467 33.1042 318.237 31.2794L314.552 29.7246C313.564 32.0664 313.076 34.5619 313.076 37.1914H317.076ZM318.227 31.3036C319.041 29.442 320.139 27.8284 321.52 26.4474L318.691 23.619C316.947 25.363 315.571 27.3953 314.562 29.7003L318.227 31.3036ZM321.52 26.4474C322.895 25.0718 324.501 23.9947 326.352 23.2138L324.797 19.5284C322.481 20.5053 320.441 21.8696 318.691 23.619L321.52 26.4474ZM326.365 23.2079C328.224 22.4075 330.2 22.0039 332.312 22.0039V18.0039C329.673 18.0039 327.157 18.5117 324.783 19.5343L326.365 23.2079ZM332.312 22.0039H337.293V18.0039H332.312V22.0039ZM337.293 22.0039C339.406 22.0039 341.362 22.4075 343.181 23.2034L344.784 19.5388C342.437 18.5118 339.933 18.0039 337.293 18.0039V22.0039ZM343.205 23.2138C345.056 23.9947 346.661 25.0718 348.037 26.4474L350.865 23.619C349.116 21.8696 347.075 20.5053 344.76 19.5284L343.205 23.2138ZM348.037 26.4474C349.413 27.823 350.49 29.4283 351.271 31.2794L354.956 29.7246C353.979 27.4089 352.615 25.3684 350.865 23.619L348.037 26.4474ZM351.281 31.3036C352.077 33.1228 352.48 35.0783 352.48 37.1914H356.48C356.48 34.5519 355.973 32.0478 354.946 29.7003L351.281 31.3036ZM352.48 37.1914V74.7891H356.48V37.1914H352.48ZM350.182 37.1914C350.182 35.3723 349.839 33.6477 349.134 32.0417L345.471 33.6497C345.938 34.713 346.182 35.8855 346.182 37.1914H350.182ZM349.141 32.0579C348.459 30.4669 347.521 29.0636 346.324 27.867L343.496 30.6955C344.318 31.5171 344.974 32.4902 345.464 33.6335L349.141 32.0579ZM346.324 27.867C345.128 26.6704 343.725 25.7322 342.134 25.0504L340.558 28.727C341.701 29.217 342.674 29.8738 343.496 30.6955L346.324 27.867ZM342.15 25.0574C340.544 24.3523 338.819 24.0098 337 24.0098V28.0098C338.306 28.0098 339.478 28.2531 340.542 28.72L342.15 25.0574ZM337 24.0098H332.605V28.0098H337V24.0098ZM332.605 24.0098C330.786 24.0098 329.052 24.3524 327.423 25.0504L328.999 28.727C330.105 28.2531 331.3 28.0098 332.605 28.0098V24.0098ZM327.407 25.0574C325.856 25.7384 324.468 26.6693 323.255 27.8448L326.038 30.7177C326.908 29.875 327.897 29.2108 329.015 28.72L327.407 25.0574ZM323.232 27.867C322.036 29.0636 321.097 30.4669 320.416 32.0579L324.092 33.6335C324.582 32.4902 325.239 31.5171 326.061 30.6955L323.232 27.867ZM320.423 32.0417C319.718 33.6477 319.375 35.3723 319.375 37.1914H323.375C323.375 35.8855 323.618 34.713 324.085 33.6497L320.423 32.0417ZM319.375 37.1914V74.7891H323.375V37.1914H319.375ZM319.375 74.7891C319.375 76.6085 319.718 78.3428 320.416 79.9714L324.092 78.3958C323.618 77.29 323.375 76.0946 323.375 74.7891H319.375ZM320.423 79.9876C321.104 81.5389 322.035 82.9263 323.21 84.1396L326.083 81.3565C325.24 80.4865 324.576 79.4976 324.085 78.3796L320.423 79.9876ZM323.255 84.1845C324.468 85.36 325.856 86.2909 327.407 86.9719L329.015 83.3093C327.897 82.8185 326.908 82.1543 326.038 81.3116L323.255 84.1845ZM327.423 86.9789C329.052 87.6769 330.786 88.0195 332.605 88.0195V84.0195C331.3 84.0195 330.105 83.7762 328.999 83.3023L327.423 86.9789ZM332.605 88.0195H337V84.0195H332.605V88.0195ZM337 88.0195C338.819 88.0195 340.544 87.677 342.15 86.9719L340.542 83.3093C339.478 83.7762 338.306 84.0195 337 84.0195V88.0195ZM342.134 86.9789C343.725 86.2971 345.128 85.3589 346.324 84.1623L343.496 81.3338C342.674 82.1555 341.701 82.8123 340.558 83.3023L342.134 86.9789ZM346.347 84.1396C347.522 82.9263 348.453 81.5389 349.134 79.9876L345.471 78.3796C344.981 79.4976 344.316 80.4865 343.474 81.3565L346.347 84.1396ZM349.141 79.9714C349.839 78.3428 350.182 76.6085 350.182 74.7891H346.182C346.182 76.0946 345.938 77.29 345.464 78.3958L349.141 79.9714ZM350.182 74.7891V37.1914H346.182V74.7891H350.182ZM405.604 91L403.868 91.9941L404.444 93H405.604V91ZM376.404 40.0234L374.441 40.4035L374.504 40.7294L374.669 41.0175L376.404 40.0234ZM375.818 36.9961L377.782 36.6161L373.818 36.9961H375.818ZM375.818 91V93H377.818V91H375.818ZM369.52 91H367.52V93H369.52V91ZM369.52 20.9805V18.9805H367.52V20.9805H369.52ZM372.791 20.9805L374.527 19.9871L373.951 18.9805H372.791V20.9805ZM401.99 72.0059L403.946 71.589L403.881 71.2836L403.726 71.0125L401.99 72.0059ZM402.625 74.9844L400.669 75.4012L404.625 74.9844H402.625ZM402.625 20.9805V18.9805H400.625V20.9805H402.625ZM408.924 20.9805H410.924V18.9805H408.924V20.9805ZM408.924 91V93H410.924V91H408.924ZM407.339 90.0059L378.14 39.0294L374.669 41.0175L403.868 91.9941L407.339 90.0059ZM378.368 39.6434L377.782 36.6161L373.855 37.3761L374.441 40.4035L378.368 39.6434ZM373.818 36.9961V91H377.818V36.9961H373.818ZM375.818 89H369.52V93H375.818V89ZM371.52 91V20.9805H367.52V91H371.52ZM369.52 22.9805H372.791V18.9805H369.52V22.9805ZM371.055 21.9738L400.254 72.9992L403.726 71.0125L374.527 19.9871L371.055 21.9738ZM400.034 72.4227L400.669 75.4012L404.581 74.5675L403.946 71.589L400.034 72.4227ZM404.625 74.9844V20.9805H400.625V74.9844H404.625ZM402.625 22.9805H408.924V18.9805H402.625V22.9805ZM406.924 20.9805V91H410.924V20.9805H406.924ZM408.924 89H405.604V93H408.924V89ZM451.258 74.6914L453.182 74.1442L452.768 72.6914H451.258V74.6914ZM429.09 74.6914V72.6914H427.575L427.165 74.1496L429.09 74.6914ZM424.5 91V93H426.015L426.425 91.5418L424.5 91ZM417.957 91L416.038 90.4378L415.287 93H417.957V91ZM438.465 20.9805V18.9805H436.967L436.545 20.4183L438.465 20.9805ZM441.785 20.9805L443.704 20.4158L443.281 18.9805H441.785V20.9805ZM462.391 91V93H465.064L464.309 90.4354L462.391 91ZM455.896 91L453.973 91.5472L454.386 93H455.896V91ZM430.799 68.6855L428.875 68.1384L428.151 70.6855H430.799V68.6855ZM449.598 68.6855V70.6855H452.25L451.521 68.1357L449.598 68.6855ZM440.369 36.4102L438.375 36.5607L438.39 36.764L438.446 36.96L440.369 36.4102ZM440.174 33.8223L442.168 33.6717H438.18L440.174 33.8223ZM439.979 36.4102L441.902 36.9573L441.958 36.7626L441.973 36.5607L439.979 36.4102ZM451.258 72.6914H429.09V76.6914H451.258V72.6914ZM427.165 74.1496L422.575 90.4582L426.425 91.5418L431.015 75.2332L427.165 74.1496ZM424.5 89H417.957V93H424.5V89ZM419.876 91.5622L440.384 21.5426L436.545 20.4183L416.038 90.4378L419.876 91.5622ZM438.465 22.9805H441.785V18.9805H438.465V22.9805ZM439.867 21.5451L460.472 91.5646L464.309 90.4354L443.704 20.4158L439.867 21.5451ZM462.391 89H455.896V93H462.391V89ZM457.82 90.4528L453.182 74.1442L449.334 75.2386L453.973 91.5472L457.82 90.4528ZM430.799 70.6855H449.598V66.6855H430.799V70.6855ZM451.521 68.1357L442.292 35.8603L438.446 36.96L447.675 69.2354L451.521 68.1357ZM442.363 36.2596L442.168 33.6717L438.18 33.9728L438.375 36.5607L442.363 36.2596ZM438.18 33.6717L437.984 36.2596L441.973 36.5607L442.168 33.9728L438.18 33.6717ZM438.055 35.863L428.875 68.1384L432.723 69.2327L441.902 36.9573L438.055 35.863Z" fill="#FFE600" fill-opacity="0.1"/>
</g>
<defs>
<filter id="filter0_f_224_13991" x="0.0078125" y="0.00390625" width="482.383" height="111.973" filterUnits="userSpaceOnUse" color-interpolation-filters="sRGB">
<feFlood flood-opacity="0" result="BackgroundImageFix"/>
<feBlend mode="normal" in="SourceGraphic" in2="BackgroundImageFix" result="shape"/>
<feGaussianBlur stdDeviation="10" result="effect1_foregroundBlur_224_13991"/>
</filter>
</defs>
</svg>
